<svg width="2830" height="1000" viewBox="0 0 2830 1000" fill="none" xmlns="http://www.w3.org/2000/svg">
<path d="M280 678.37V321.63C280 298.666 298.666 280 321.63 280C339.759 280 355.807 291.75 361.312 309.007L406.568 451.354C412.544 470.154 432.62 480.494 451.354 474.519C462.365 471.027 471.027 462.365 474.519 451.354L519.774 309.007C525.28 291.75 541.328 280 559.457 280H678.37C701.334 280 720 298.666 720 321.63C720 339.759 708.25 355.807 690.993 361.312L548.646 406.568C529.846 412.544 519.506 432.62 525.481 451.354C531.457 470.154 551.534 480.494 570.267 474.519C574.833 473.041 578.996 470.758 582.622 467.603L651.311 408.918C668.769 393.945 695.022 396.026 709.995 413.484C716.911 421.541 720.47 432.016 719.933 442.625L714.024 561.27C713.017 580.943 696.298 596.118 676.624 595.111C669.507 594.775 662.658 592.291 657.018 587.993L580.943 530.92C565.164 519.103 542.805 522.326 530.987 538.038C528.57 541.26 526.757 544.819 525.549 548.646L480.293 690.993C474.787 708.25 458.74 720 440.61 720H321.63C298.666 720 280 701.334 280 678.37Z" fill="black"/>
<path d="M908.135 487.275H987.272V511.371H908.135V590H880.234V408.646H1006.04V432.742H908.135V487.275Z" fill="black"/>
<path d="M1070.62 593.805C1057.1 593.805 1045.51 590.93 1035.88 585.181C1026.24 579.263 1018.8 571.146 1013.56 560.832C1008.48 550.517 1005.95 538.68 1005.95 525.322C1005.95 515.176 1007.38 505.96 1010.26 497.675C1013.13 489.22 1017.36 481.949 1022.94 475.861C1028.69 469.605 1035.54 464.87 1043.49 461.657C1051.6 458.275 1060.65 456.584 1070.62 456.584C1084.15 456.584 1095.65 459.544 1105.12 465.462C1114.76 471.211 1122.2 479.243 1127.44 489.558C1132.68 499.704 1135.3 511.54 1135.3 525.068C1135.3 535.383 1133.78 544.768 1130.74 553.222C1127.86 561.508 1123.55 568.694 1117.8 574.782C1112.22 580.869 1105.46 585.604 1097.51 588.986C1089.56 592.199 1080.6 593.805 1070.62 593.805ZM1070.62 573.26C1077.39 573.26 1083.14 572.076 1087.87 569.709C1092.78 567.342 1096.75 563.96 1099.79 559.563C1103.01 554.998 1105.37 549.84 1106.9 544.091C1108.59 538.342 1109.43 532.085 1109.43 525.322C1109.43 516.19 1107.99 508.074 1105.12 500.972C1102.41 493.701 1098.19 487.952 1092.44 483.724C1086.69 479.497 1079.42 477.383 1070.62 477.383C1064.03 477.383 1058.28 478.567 1053.38 480.934C1048.47 483.301 1044.42 486.683 1041.2 491.08C1037.99 495.476 1035.62 500.634 1034.1 506.552C1032.58 512.301 1031.82 518.558 1031.82 525.322C1031.82 534.284 1033.17 542.4 1035.88 549.671C1038.58 556.942 1042.81 562.692 1048.56 566.919C1054.48 571.146 1061.83 573.26 1070.62 573.26Z" fill="black"/>
<path d="M1159.48 460.643H1184.34V590H1159.48V460.643ZM1231.52 482.202C1229.83 481.864 1228.31 481.695 1226.95 481.695C1225.77 481.526 1224.5 481.441 1223.15 481.441C1215.54 481.441 1208.78 483.217 1202.86 486.768C1197.11 490.15 1192.54 494.969 1189.16 501.226C1185.95 507.482 1184.34 514.753 1184.34 523.039H1172.17L1166.59 485.246H1184.85C1188.23 477.13 1192.63 470.535 1198.04 465.462C1203.62 460.22 1210.81 457.599 1219.6 457.599C1221.97 457.599 1224.08 457.684 1225.94 457.853C1227.8 457.853 1229.66 458.022 1231.52 458.36V482.202Z" fill="black"/>
<path d="M1307.02 511.879C1312.94 513.4 1318.77 515.007 1324.52 516.698C1330.44 518.389 1335.76 520.756 1340.5 523.8C1345.4 526.843 1349.29 530.733 1352.17 535.467C1355.04 540.202 1356.48 546.12 1356.48 553.222C1356.48 561.677 1354.36 568.948 1350.14 575.036C1346.08 580.954 1340.08 585.519 1332.13 588.732C1324.18 591.945 1314.54 593.551 1303.21 593.551C1290.19 593.551 1279.29 591.522 1270.49 587.464C1261.87 583.406 1255.27 577.826 1250.71 570.724C1246.31 563.622 1243.95 555.674 1243.61 546.881H1268.72C1269.22 551.954 1270.58 556.52 1272.78 560.578C1275.14 564.636 1278.78 567.849 1283.68 570.216C1288.59 572.415 1295.01 573.514 1302.96 573.514C1310.23 573.514 1315.81 572.584 1319.7 570.724C1323.76 568.864 1326.55 566.496 1328.07 563.622C1329.76 560.578 1330.61 557.534 1330.61 554.49C1330.61 549.079 1328.92 545.106 1325.53 542.569C1322.15 539.864 1317.92 537.919 1312.85 536.736C1307.78 535.383 1302.37 534.115 1296.62 532.931C1291.04 531.578 1285.37 530.141 1279.62 528.619C1273.88 526.928 1268.63 524.645 1263.9 521.771C1259.16 518.896 1255.36 515.26 1252.48 510.864C1249.61 506.467 1248.17 500.887 1248.17 494.124C1248.17 486.683 1250.12 480.173 1254.01 474.593C1257.9 469.013 1263.48 464.701 1270.75 461.657C1278.19 458.444 1287.15 456.838 1297.63 456.838C1309.3 456.838 1319.02 458.698 1326.8 462.418C1334.75 466.138 1340.75 471.211 1344.81 477.637C1348.87 483.893 1351.15 490.742 1351.66 498.182H1326.55C1326.04 494.8 1324.86 491.503 1323 488.29C1321.31 485.077 1318.52 482.371 1314.63 480.173C1310.74 477.975 1305.16 476.876 1297.89 476.876C1292.31 476.876 1287.74 477.552 1284.19 478.905C1280.81 480.258 1278.27 482.118 1276.58 484.485C1274.89 486.852 1274.04 489.727 1274.04 493.109C1274.04 497.505 1275.48 500.803 1278.36 503.001C1281.23 505.199 1285.2 506.89 1290.28 508.074C1295.35 509.088 1300.93 510.357 1307.02 511.879Z" fill="black"/>
<path d="M1379.11 590V408.646H1403.97V525.322L1394.33 524.814L1460.53 460.643H1488.94L1395.6 549.671L1403.97 530.141V590H1379.11ZM1465.1 590L1419.19 518.473L1436.18 503.255L1494.27 590H1465.1Z" fill="black"/>
<path d="M1509.47 590V460.643H1534.33V590H1509.47ZM1507.19 424.625C1507.19 420.736 1508.46 417.354 1510.99 414.48C1513.53 411.605 1517.17 410.168 1521.9 410.168C1526.64 410.168 1530.27 411.605 1532.81 414.48C1535.34 417.354 1536.61 420.736 1536.61 424.625C1536.61 428.515 1535.34 431.897 1532.81 434.771C1530.27 437.646 1526.64 439.083 1521.9 439.083C1517.17 439.083 1513.53 437.646 1510.99 434.771C1508.46 431.897 1507.19 428.515 1507.19 424.625Z" fill="black"/>
<path d="M1565.3 590V460.643H1590.16V590H1565.3ZM1651.28 507.059C1651.28 501.31 1650.35 496.237 1648.49 491.841C1646.8 487.444 1644.01 484.062 1640.12 481.695C1636.4 479.328 1631.42 478.144 1625.16 478.144C1619.75 478.144 1614.84 478.905 1610.45 480.427C1606.22 481.949 1602.58 484.147 1599.54 487.022C1596.5 489.896 1594.13 493.363 1592.44 497.421C1590.92 501.31 1590.16 505.707 1590.16 510.61H1581.53V476.876H1590.66C1594.05 471.972 1599.2 467.407 1606.14 463.179C1613.07 458.952 1622.12 456.838 1633.28 456.838C1641.39 456.838 1648.66 458.444 1655.09 461.657C1661.51 464.701 1666.67 469.436 1670.56 475.861C1674.45 482.118 1676.39 490.234 1676.39 500.211V590H1651.28V507.059Z" fill="black"/>
<path d="M1796.9 581.377V460.643H1821.76V579.855C1821.76 592.706 1819.31 603.274 1814.4 611.56C1809.5 620.015 1802.48 626.271 1793.35 630.33C1784.39 634.388 1773.65 636.417 1761.14 636.417C1748.79 636.417 1738.48 634.557 1730.19 630.837C1721.91 627.286 1715.48 622.382 1710.92 616.126C1706.52 609.869 1703.9 602.936 1703.05 595.327H1728.67C1729.52 599.216 1731.12 602.683 1733.49 605.726C1736.03 608.939 1739.49 611.476 1743.89 613.336C1748.46 615.196 1754.21 616.126 1761.14 616.126C1772.81 616.126 1781.68 613.336 1787.77 607.755C1793.86 602.344 1796.9 593.551 1796.9 581.377ZM1796.4 563.875C1792.84 568.948 1787.86 573.514 1781.43 577.572C1775.17 581.461 1766.89 583.406 1756.57 583.406C1745.75 583.406 1736.03 581.038 1727.4 576.304C1718.95 571.4 1712.19 564.298 1707.11 554.998C1702.04 545.528 1699.5 533.945 1699.5 520.249C1699.5 509.765 1700.94 500.634 1703.82 492.855C1706.69 484.908 1710.66 478.313 1715.74 473.071C1720.98 467.66 1727.07 463.602 1734 460.896C1740.93 458.191 1748.46 456.838 1756.57 456.838C1763.51 456.838 1769.42 457.768 1774.33 459.628C1779.4 461.488 1783.71 463.856 1787.26 466.73C1790.98 469.605 1794.03 472.648 1796.4 475.861H1798.42V563.875H1796.4ZM1761.14 477.637C1753.02 477.637 1746.26 479.497 1740.85 483.217C1735.61 486.937 1731.72 492.01 1729.18 498.435C1726.64 504.861 1725.38 512.132 1725.38 520.249C1725.38 528.365 1726.64 535.636 1729.18 542.062C1731.72 548.488 1735.61 553.56 1740.85 557.281C1746.26 561.001 1753.02 562.861 1761.14 562.861C1766.72 562.861 1771.71 562.015 1776.1 560.324C1780.5 558.464 1784.22 555.759 1787.26 552.208C1790.31 548.488 1792.59 544.007 1794.11 538.765C1795.8 533.523 1796.65 527.351 1796.65 520.249C1796.65 510.779 1795.21 502.916 1792.34 496.66C1789.63 490.234 1785.57 485.5 1780.16 482.456C1774.92 479.243 1768.58 477.637 1761.14 477.637Z" fill="black"/>
<path d="M1907.36 511.879C1913.28 513.4 1919.11 515.007 1924.86 516.698C1930.78 518.389 1936.1 520.756 1940.84 523.8C1945.74 526.843 1949.63 530.733 1952.51 535.467C1955.38 540.202 1956.82 546.12 1956.82 553.222C1956.82 561.677 1954.7 568.948 1950.48 575.036C1946.42 580.954 1940.42 585.519 1932.47 588.732C1924.52 591.945 1914.88 593.551 1903.55 593.551C1890.53 593.551 1879.63 591.522 1870.83 587.464C1862.21 583.406 1855.61 577.826 1851.05 570.724C1846.65 563.622 1844.29 555.674 1843.95 546.881H1869.06C1869.57 551.954 1870.92 556.52 1873.12 560.578C1875.48 564.636 1879.12 567.849 1884.02 570.216C1888.93 572.415 1895.35 573.514 1903.3 573.514C1910.57 573.514 1916.15 572.584 1920.04 570.724C1924.1 568.864 1926.89 566.496 1928.41 563.622C1930.1 560.578 1930.95 557.534 1930.95 554.49C1930.95 549.079 1929.26 545.106 1925.87 542.569C1922.49 539.864 1918.26 537.919 1913.19 536.736C1908.12 535.383 1902.71 534.115 1896.96 532.931C1891.38 531.578 1885.71 530.141 1879.96 528.619C1874.22 526.928 1868.97 524.645 1864.24 521.771C1859.5 518.896 1855.7 515.26 1852.82 510.864C1849.95 506.467 1848.51 500.887 1848.51 494.124C1848.51 486.683 1850.46 480.173 1854.35 474.593C1858.24 469.013 1863.82 464.701 1871.09 461.657C1878.53 458.444 1887.49 456.838 1897.97 456.838C1909.64 456.838 1919.36 458.698 1927.14 462.418C1935.09 466.138 1941.09 471.211 1945.15 477.637C1949.21 483.893 1951.49 490.742 1952 498.182H1926.89C1926.38 494.8 1925.2 491.503 1923.34 488.29C1921.65 485.077 1918.86 482.371 1914.97 480.173C1911.08 477.975 1905.5 476.876 1898.23 476.876C1892.65 476.876 1888.08 477.552 1884.53 478.905C1881.15 480.258 1878.61 482.118 1876.92 484.485C1875.23 486.852 1874.38 489.727 1874.38 493.109C1874.38 497.505 1875.82 500.803 1878.7 503.001C1881.57 505.199 1885.54 506.89 1890.62 508.074C1895.69 509.088 1901.27 510.357 1907.36 511.879Z" fill="black"/>
<path d="M1979.45 460.643H2004.31V590H1979.45V460.643ZM2051.49 482.202C2049.8 481.864 2048.27 481.695 2046.92 481.695C2045.74 481.526 2044.47 481.441 2043.12 481.441C2035.51 481.441 2028.74 483.217 2022.82 486.768C2017.08 490.15 2012.51 494.969 2009.13 501.226C2005.92 507.482 2004.31 514.753 2004.31 523.039H1992.13L1986.55 485.246H2004.82C2008.2 477.13 2012.59 470.535 2018.01 465.462C2023.59 460.22 2030.77 457.599 2039.57 457.599C2041.93 457.599 2044.05 457.684 2045.91 457.853C2047.77 457.853 2049.63 458.022 2051.49 458.36V482.202Z" fill="black"/>
<path d="M2101.76 593.551C2088.91 593.551 2078.6 590.17 2070.82 583.406C2063.21 576.473 2059.4 567.511 2059.4 556.52C2059.4 549.249 2060.67 543.161 2063.21 538.257C2065.91 533.354 2069.64 529.295 2074.37 526.083C2079.1 522.87 2084.77 520.249 2091.36 518.22C2098.13 516.19 2105.48 514.415 2113.43 512.893C2118.5 511.879 2123.07 510.949 2127.13 510.103C2131.19 509.258 2134.65 508.158 2137.53 506.806C2140.4 505.453 2142.51 503.762 2143.87 501.733C2145.39 499.704 2146.15 497.083 2146.15 493.87C2146.15 489.135 2144.38 485.077 2140.82 481.695C2137.44 478.313 2131.02 476.622 2121.55 476.622C2110.22 476.622 2102.44 478.482 2098.21 482.202C2093.98 485.922 2091.53 492.179 2090.86 500.972H2065.49C2066 492.686 2068.2 485.246 2072.09 478.651C2076.15 471.888 2082.23 466.561 2090.35 462.672C2098.63 458.614 2109.37 456.584 2122.56 456.584C2131.52 456.584 2139.56 458.022 2146.66 460.896C2153.93 463.602 2159.68 468.167 2163.91 474.593C2168.3 481.019 2170.5 489.896 2170.5 501.226V560.578C2170.5 565.313 2170.92 568.864 2171.77 571.231C2172.61 573.598 2174.22 574.782 2176.59 574.782C2176.93 574.782 2177.35 574.782 2177.86 574.782C2178.36 574.782 2178.95 574.697 2179.63 574.528V589.747C2177.43 590.254 2175.23 590.592 2173.04 590.761C2171.01 591.1 2168.98 591.269 2166.95 591.269C2160.86 591.269 2156.13 589.916 2152.75 587.21C2149.36 584.336 2147.33 579.178 2146.66 571.738H2146.15C2141.75 578.333 2135.84 583.659 2128.4 587.718C2121.12 591.607 2112.25 593.551 2101.76 593.551ZM2107.34 573.514C2114.78 573.514 2121.38 572.245 2127.13 569.709C2133.05 567.173 2137.7 563.368 2141.08 558.295C2144.46 553.222 2146.15 546.966 2146.15 539.526V521.01C2144.8 522.193 2142.68 523.377 2139.81 524.561C2137.1 525.575 2133.81 526.59 2129.92 527.604C2126.2 528.45 2122.14 529.38 2117.74 530.394C2110.13 531.916 2103.88 533.776 2098.97 535.975C2094.24 538.004 2090.77 540.54 2088.57 543.584C2086.54 546.458 2085.53 550.179 2085.53 554.744C2085.53 560.832 2087.22 565.482 2090.6 568.694C2094.15 571.907 2099.73 573.514 2107.34 573.514ZM2121.04 449.229C2114.45 449.229 2108.86 447.115 2104.3 442.888C2099.9 438.491 2097.7 432.827 2097.7 425.894C2097.7 418.961 2099.9 413.381 2104.3 409.153C2108.86 404.757 2114.45 402.559 2121.04 402.559C2127.97 402.559 2133.64 404.757 2138.03 409.153C2142.43 413.381 2144.63 418.961 2144.63 425.894C2144.63 432.827 2142.43 438.491 2138.03 442.888C2133.64 447.115 2127.97 449.229 2121.04 449.229ZM2121.04 438.069C2124.59 438.069 2127.47 436.969 2129.66 434.771C2131.86 432.573 2132.96 429.614 2132.96 425.894C2132.96 422.343 2131.86 419.468 2129.66 417.27C2127.47 414.903 2124.59 413.719 2121.04 413.719C2117.83 413.719 2115.12 414.903 2112.92 417.27C2110.73 419.468 2109.63 422.343 2109.63 425.894C2109.63 429.614 2110.73 432.573 2112.92 434.771C2115.12 436.969 2117.83 438.069 2121.04 438.069Z" fill="black"/>
<path d="M2294.14 408.646H2319.25V590H2294.14V408.646ZM2293.63 476.369H2300.48V574.782H2293.63C2291.43 577.657 2288.47 580.616 2284.75 583.659C2281.2 586.534 2276.8 588.901 2271.56 590.761C2266.49 592.621 2260.57 593.551 2253.81 593.551C2242.81 593.551 2232.92 590.846 2224.13 585.435C2215.51 580.024 2208.66 572.245 2203.58 562.1C2198.51 551.785 2195.98 539.526 2195.98 525.322C2195.98 514.669 2197.41 505.115 2200.29 496.66C2203.16 488.205 2207.22 481.019 2212.46 475.1C2217.87 469.182 2224.05 464.701 2230.98 461.657C2237.91 458.444 2245.52 456.838 2253.81 456.838C2260.57 456.838 2266.49 457.768 2271.56 459.628C2276.8 461.488 2281.2 463.94 2284.75 466.984C2288.47 469.858 2291.43 472.987 2293.63 476.369ZM2257.86 573.006C2263.61 573.006 2268.69 571.907 2273.08 569.709C2277.48 567.511 2281.2 564.298 2284.24 560.071C2287.46 555.843 2289.91 550.855 2291.6 545.106C2293.29 539.187 2294.14 532.593 2294.14 525.322C2294.14 515.514 2292.7 507.059 2289.82 499.957C2286.95 492.686 2282.81 487.191 2277.39 483.471C2271.98 479.581 2265.47 477.637 2257.86 477.637C2251.95 477.637 2246.7 478.905 2242.14 481.441C2237.57 483.978 2233.77 487.444 2230.72 491.841C2227.85 496.237 2225.65 501.31 2224.13 507.059C2222.61 512.809 2221.85 518.896 2221.85 525.322C2221.85 533.776 2223.12 541.639 2225.65 548.91C2228.36 556.181 2232.42 562.015 2237.83 566.412C2243.24 570.808 2249.92 573.006 2257.86 573.006Z" fill="black"/>
<path d="M2407.36 593.805C2393.66 593.805 2381.99 590.846 2372.35 584.928C2362.88 579.009 2355.7 570.893 2350.79 560.578C2345.89 550.094 2343.44 538.257 2343.44 525.068C2343.44 514.922 2344.88 505.707 2347.75 497.421C2350.79 488.966 2355.02 481.695 2360.43 475.608C2366.01 469.52 2372.69 464.87 2380.47 461.657C2388.42 458.275 2397.38 456.584 2407.36 456.584C2420.55 456.584 2431.62 459.29 2440.58 464.701C2449.71 470.112 2456.65 477.806 2461.38 487.782C2466.29 497.59 2468.74 509.173 2468.74 522.532C2468.74 524.222 2468.74 525.998 2468.74 527.858C2468.74 529.549 2468.65 530.902 2468.48 531.916H2355.87V512.386H2442.61C2442.61 507.313 2441.77 502.663 2440.08 498.435C2438.39 494.039 2435.93 490.234 2432.72 487.022C2429.68 483.809 2425.96 481.357 2421.56 479.666C2417.16 477.806 2412.18 476.876 2406.6 476.876C2399.32 476.876 2392.81 478.482 2387.07 481.695C2381.49 484.908 2377.09 489.389 2373.88 495.138C2370.66 500.887 2369.06 507.651 2369.06 515.43C2369.06 518.135 2369.06 520.841 2369.06 523.546C2369.06 526.083 2369.06 528.45 2369.06 530.648C2369.06 538.088 2370.49 545.021 2373.37 551.447C2376.24 557.872 2380.56 563.199 2386.3 567.426C2392.05 571.485 2399.24 573.514 2407.86 573.514C2415.47 573.514 2421.56 572.161 2426.13 569.455C2430.86 566.75 2434.41 563.622 2436.78 560.071C2439.32 556.351 2441.01 553.053 2441.85 550.179H2466.96C2464.76 558.464 2461.13 565.904 2456.06 572.499C2450.98 579.094 2444.39 584.336 2436.27 588.225C2428.32 591.945 2418.69 593.805 2407.36 593.805Z" fill="black"/>
<path d="M2525.29 419.045V554.237C2525.29 558.802 2525.72 562.269 2526.56 564.636C2527.58 567.004 2529.1 568.694 2531.13 569.709C2533.32 570.555 2536.2 570.977 2539.75 570.977C2541.78 570.977 2543.47 570.893 2544.82 570.724C2546.34 570.555 2548.2 570.301 2550.4 569.963V590C2547.19 590.508 2544.4 590.846 2542.03 591.015C2539.83 591.353 2537.3 591.522 2534.42 591.522C2527.49 591.522 2521.4 590.423 2516.16 588.225C2511.09 586.027 2507.2 582.222 2504.49 576.811C2501.79 571.231 2500.44 563.453 2500.44 553.476V419.045H2525.29ZM2481.67 460.643H2550.15V481.188H2481.67V460.643Z" fill="black"/>
</svg>
