<?xml version="1.0" encoding="utf-8"?>
<!-- Generator: Adobe Illustrator 26.3.1, SVG Export Plug-In . SVG Version: 6.00 Build 0)  -->
<svg version="1.1" id="Layer_1" xmlns="http://www.w3.org/2000/svg" xmlns:xlink="http://www.w3.org/1999/xlink" x="0px" y="0px"
	 viewBox="0 0 23.68 23.68" style="enable-background:new 0 0 23.68 23.68;" xml:space="preserve">
<style type="text/css">
	.st0{fill:#FFFFFF;}
	.st1{fill:#008571;}
</style>
<path d="M5.36,15.41H6v2.91H5.37l-1.08-1.72v1.72H3.64v-2.91h0.65l1.07,1.69V15.41z M11.26,15.34v-2.91h-0.77l-0.68,1.83l-0.67-1.83
	h-0.8v2.91h0.64v-1.65l0.59,1.61h0.47l0.59-1.59v1.63H11.26z M19.2,5.32v1.77c0,0.27-0.09,0.59-0.51,0.59
	c-0.42,0-0.51-0.32-0.51-0.59V5.32h-0.65V7.1c0,0.73,0.44,1.19,1.16,1.19c0.73,0,1.16-0.44,1.16-1.19V5.32H19.2z M14.88,9.73
	c0.2,0.14,0.32,0.37,0.32,0.63c0,0.29-0.11,0.52-0.31,0.68c-0.23,0.18-0.51,0.2-0.78,0.2h-1.17V8.32h1.17
	c0.29,0,0.51,0.05,0.68,0.16c0.22,0.14,0.35,0.4,0.35,0.66C15.15,9.34,15.07,9.59,14.88,9.73z M13.59,9.45h0.56
	c0.31,0,0.34-0.15,0.34-0.27c0-0.18-0.12-0.28-0.35-0.28h-0.55V9.45z M14.54,10.35c0-0.08,0-0.33-0.4-0.33h-0.56v0.62h0.55
	C14.29,10.64,14.54,10.6,14.54,10.35z M17.7,13.59h-3.47v-1.16H13.6v1.16h-1.16v0.63h1.16v3.47H7.41v0.63h6.58
	c0.13,0,0.24-0.11,0.24-0.24v-3.86h3.86c0.13,0,0.24-0.11,0.24-0.24V9.34H17.7V13.59z M9.46,11.24h0.63v-1.17h1.17V9.44h-1.17V5.97
	h6.03V5.34H9.7c-0.13,0-0.24,0.11-0.24,0.24v3.86H5.6c-0.13,0-0.24,0.11-0.24,0.24v4.54h0.63v-4.15h3.47V11.24z"/>
</svg>
