<?xml version="1.0" encoding="UTF-8" standalone="no"?>
<svg
   xmlns:dc="http://purl.org/dc/elements/1.1/"
   xmlns:cc="http://creativecommons.org/ns#"
   xmlns:rdf="http://www.w3.org/1999/02/22-rdf-syntax-ns#"
   xmlns:svg="http://www.w3.org/2000/svg"
   xmlns="http://www.w3.org/2000/svg"
   xmlns:sodipodi="http://sodipodi.sourceforge.net/DTD/sodipodi-0.dtd"
   xmlns:inkscape="http://www.inkscape.org/namespaces/inkscape"
   viewBox="0 0 512 512"
   version="1.1"
   id="svg4"
   sodipodi:docname="circle-question-solid-col.svg"
   inkscape:version="0.92.5 (2060ec1f9f, 2020-04-08)">
  <metadata
     id="metadata10">
    <rdf:RDF>
      <cc:Work
         rdf:about="">
        <dc:format>image/svg+xml</dc:format>
        <dc:type
           rdf:resource="http://purl.org/dc/dcmitype/StillImage" />
      </cc:Work>
    </rdf:RDF>
  </metadata>
  <defs
     id="defs8" />
  <sodipodi:namedview
     pagecolor="#ffffff"
     bordercolor="#666666"
     borderopacity="1"
     objecttolerance="10"
     gridtolerance="10"
     guidetolerance="10"
     inkscape:pageopacity="0"
     inkscape:pageshadow="2"
     inkscape:window-width="1920"
     inkscape:window-height="1151"
     id="namedview6"
     showgrid="false"
     inkscape:zoom="0.4609375"
     inkscape:cx="-568.40678"
     inkscape:cy="256"
     inkscape:window-x="0"
     inkscape:window-y="25"
     inkscape:window-maximized="1"
     inkscape:current-layer="svg4" />
  <!--! Font Awesome Pro 6.4.0 by @fontawesome - https://fontawesome.com License - https://fontawesome.com/license (Commercial License) Copyright 2023 Fonticons, Inc. -->
  <g
     id="g852">
    <g
       id="g843">
      <g
         id="g835">
        <g
           id="g828">
          <rect
             style="opacity:1;fill:#f47d20;fill-opacity:1;stroke:#f47d20;stroke-width:1;stroke-linecap:square;stroke-miterlimit:4;stroke-dasharray:none;stroke-dashoffset:0;stroke-opacity:1"
             id="rect815"
             width="520.67798"
             height="516.33893"
             x="-4.3389831"
             y="-4.3389831" />
          <path
             d="M 256,512 C 397.38499,512 511.99989,397.38489 511.99989,256 511.99989,114.61511 397.38499,0 256,0 114.61501,0 1.1113408e-4,114.61511 1.1113408e-4,256 1.1113408e-4,397.38489 114.61501,512 256,512 Z"
             id="path4599"
             style="fill:#ffffff;fill-opacity:1"
             inkscape:connector-curvature="0" />
          <path
             inkscape:connector-curvature="0"
             d="m 169.73244,165.3 c 7.9,-22.3 29.09999,-37.29999 52.79999,-37.29999 h 58.3 c 34.9,0 63.1,28.3 63.1,63.09999 0,22.6 -12.1,43.50001 -31.7,54.8 l -32.3,18.5 c -0.2,13 -10.9,23.6 -24,23.6 -13.3,0 -24,-10.69999 -24,-24 v -13.49999 c 0,-8.60001 4.6,-16.5 12.1,-20.80001 l 44.3,-25.39999 c 4.7,-2.7 7.6,-7.7 7.6,-13.1 0,-8.4 -6.8,-15.1 -15.1,-15.1 h -58.3 c -3.4,0 -6.4,2.1 -7.5,5.3 l -0.4,1.2 c -4.4,12.5 -18.2,19 -30.59999,14.6 -12.4,-4.4 -19,-18.2 -14.6,-30.6 l 0.4,-1.2 z"
             id="path4597"
             style="fill:#f47d20;fill-opacity:1" />
          <path
             inkscape:connector-curvature="0"
             d="m 223.93243,352 c 0,-17.67311 14.3269,-31.99997 32,-31.99997 17.6731,0 32,14.32686 32,31.99997 0,17.67313 -14.3269,32 -32,32 -17.6731,0 -32,-14.32687 -32,-32 z"
             id="path2"
             style="fill:#f47d20;fill-opacity:1" />
        </g>
      </g>
    </g>
  </g>
</svg>
