<?xml version="1.0" encoding="UTF-8" standalone="no"?>
<svg
   xmlns:dc="http://purl.org/dc/elements/1.1/"
   xmlns:cc="http://creativecommons.org/ns#"
   xmlns:rdf="http://www.w3.org/1999/02/22-rdf-syntax-ns#"
   xmlns:svg="http://www.w3.org/2000/svg"
   xmlns="http://www.w3.org/2000/svg"
   xmlns:sodipodi="http://sodipodi.sourceforge.net/DTD/sodipodi-0.dtd"
   xmlns:inkscape="http://www.inkscape.org/namespaces/inkscape"
   viewBox="0 0 512 512"
   version="1.1"
   id="svg4"
   sodipodi:docname="screwdriver-wrench-solid-col.svg"
   inkscape:version="0.92.5 (2060ec1f9f, 2020-04-08)">
  <metadata
     id="metadata10">
    <rdf:RDF>
      <cc:Work
         rdf:about="">
        <dc:format>image/svg+xml</dc:format>
        <dc:type
           rdf:resource="http://purl.org/dc/dcmitype/StillImage" />
      </cc:Work>
    </rdf:RDF>
  </metadata>
  <defs
     id="defs8" />
  <sodipodi:namedview
     pagecolor="#ffffff"
     bordercolor="#666666"
     borderopacity="1"
     objecttolerance="10"
     gridtolerance="10"
     guidetolerance="10"
     inkscape:pageopacity="0"
     inkscape:pageshadow="2"
     inkscape:window-width="1920"
     inkscape:window-height="1151"
     id="namedview6"
     showgrid="false"
     inkscape:zoom="1.3037281"
     inkscape:cx="89.634946"
     inkscape:cy="306.91106"
     inkscape:window-x="0"
     inkscape:window-y="25"
     inkscape:window-maximized="1"
     inkscape:current-layer="svg4" />
  <!--! Font Awesome Pro 6.4.0 by @fontawesome - https://fontawesome.com License - https://fontawesome.com/license (Commercial License) Copyright 2023 Fonticons, Inc. -->
  <g
     id="g823">
    <path
       inkscape:connector-curvature="0"
       id="path841"
       d="M 64.580078,-0.00585938 C 58.225806,-0.15856934 51.8375,2.21875 47,7 L 7,47 C -1.5,55.5 -2.3996094,68.999609 4.9003906,78.599609 L 84.900391,182.59961 c 4.5,5.9 11.6,9.40039 18.999999,9.40039 H 158 l 109,109 c -14.7,29 -9.99922,65.39961 14.30078,89.59961 l 112,112 c 12.5,12.5 32.79883,12.5 45.29883,0 l 64,-64 c 12.5,-12.5 12.5,-32.79883 0,-45.29883 l -112,-112 C 366.39961,257.10078 330,252.3 301,267 L 192,158 v -54 c 0,-7.5 -3.50039,-14.5 -9.40039,-19 L 78.599609,5 C 74.443359,1.7625 69.52229,0.11291504 64.580078,-0.00585938 Z"
       style="fill:#ffffff;fill-opacity:1;stroke:#4d4848;stroke-opacity:1" />
    <path
       inkscape:connector-curvature="0"
       id="path839"
       d="M 168.40039,247.5 19.900391,396.09961 C 7.2003906,408.79961 0,426.09961 0,444.09961 0,481.59961 30.400391,512 67.900391,512 c 18,0 35.299999,-7.20039 47.999999,-19.90039 L 233.69922,374.30078 c -7.8,-20.9 -8.99961,-43.60156 -3.59961,-65.10156 z"
       style="fill:#ffffff;fill-opacity:1;stroke:#4d4848;stroke-opacity:1" />
    <path
       inkscape:connector-curvature="0"
       id="path837"
       d="M 368,0 C 288.5,0 224,64.5 224,144 v 0.80078 l 85.30078,85.29883 c 36,-9.1 75.8,0.50117 104,28.70117 L 429,274.5 c 49,-23 83,-72.8 83,-130.5 0,-10.5 -1.09922,-20.7 -3.19922,-30.5 -2.4,-11.2 -16.10117,-14.1 -24.20117,-6 l -63.90039,63.90039 c -3,3 -7.09883,4.69922 -11.29883,4.69922 H 352 c -8.8,0 -16,-7.2 -16,-16 v -57.5 c 0,-4.200001 1.69922,-8.298829 4.69922,-11.298829 l 63.90039,-63.90039 c 8.1,-8.1 5.2,-21.8011723 -6,-24.2011722 C 388.69961,1.0992188 378.5,0 368,0 Z"
       style="fill:#ffffff;fill-opacity:1;stroke:#4d4848;stroke-opacity:1" />
    <path
       inkscape:connector-curvature="0"
       id="path2"
       d="m 75.661086,410.16969 c -13.25483,0 -24,10.74515 -24,24 0,13.25484 10.74517,24 24,24 13.25483,0 24,-10.74516 24,-24 0,-13.25485 -10.74517,-24 -24,-24 z"
       style="fill:#4d4848;fill-opacity:1;stroke:#4d4848;stroke-opacity:1" />
    <rect
       y="-4.3389831"
       x="-8.6779671"
       height="527.18652"
       width="531.52551"
       id="rect853"
       style="opacity:1;fill:none;fill-opacity:1;stroke:#4d4848;stroke-width:1;stroke-linecap:square;stroke-miterlimit:4;stroke-dasharray:none;stroke-dashoffset:0;stroke-opacity:1" />
    <path
       inkscape:connector-curvature="0"
       id="path848"
       d="M -7.9314095,258.98246 V -3.7256881 H 257.07783 522.08707 V 258.98246 521.69061 H 257.07783 -7.9314095 Z M 84.20573,510.65314 c 3.956362,-1.00819 9.16698,-2.71011 11.579155,-3.78204 11.332735,-5.03605 13.076665,-6.6323 77.185825,-70.64946 l 61.62878,-61.54035 -1.94956,-6.17146 c -3.51957,-11.1414 -4.64377,-18.8372 -4.68293,-32.05723 -0.0263,-8.89039 0.35814,-14.36142 1.39511,-19.85248 l 1.43147,-7.58 -31.35924,-31.35923 -31.35923,-31.35923 -76.997879,77.52836 c -42.348832,42.64061 -77.912892,78.80211 -79.031245,80.3589 -9.5400598,13.28016 -14.2728952,31.31094 -12.39600728,47.22533 3.53286158,29.95563 24.62779428,53.29109 54.16461428,59.91755 7.87487,1.76668 22.036074,1.45046 30.391137,-0.67866 z m 345.07058,-0.8309 c 4.62168,-2.0415 7.63451,-4.83886 41.26363,-38.31247 31.52711,-31.38133 36.58572,-36.73258 38.62841,-40.86309 5.12532,-10.3639 4.49837,-22.92396 -1.60723,-32.19843 -3.97207,-6.03361 -120.72722,-122.43361 -126.99128,-126.605 -22.6962,-15.11392 -49.0099,-17.98604 -74.25949,-8.10535 l -5.22669,2.04531 -54.02646,-54.02238 -54.02647,-54.02239 v -27.64577 c 0,-30.823342 -0.37034,-33.892279 -4.8492,-40.184327 -1.81352,-2.547686 -17.2907,-14.901811 -56.543,-45.133489 C 101.91325,21.880769 76.075484,2.4102386 74.221286,1.5070096 69.094512,-0.99037851 61.143168,-1.2495033 55.348655,0.89197277 51.061969,2.4762018 49.127508,4.2034965 27.130815,26.087887 0.07746969,53.003113 -0.62442895,53.957247 -0.62442895,63.817284 c 0,4.914263 0.35181185,6.50731 2.29100065,10.373932 C 4.4651736,79.77146 84.43159,183.85031 88.496494,187.20314 c 1.596445,1.31678 4.727681,3.07747 6.958307,3.91264 3.778663,1.41476 6.031699,1.51849 32.984359,1.51849 h 28.92868 l 54.29434,54.29838 54.29434,54.29838 -1.94746,4.40356 c -2.79836,6.32759 -5.0731,15.73864 -5.6577,23.40701 -1.50609,19.756 3.76011,38.41932 15.10123,53.51846 6.61527,8.80734 122.16567,123.86794 126.67654,126.13959 6.25224,3.1486 9.25138,3.77897 16.87468,3.54681 6.0506,-0.18427 8.13262,-0.59554 12.2725,-2.42422 z m 9.18592,-239.32225 c 41.99528,-23.75096 68.85833,-65.12536 73.71305,-113.53267 1.74186,-17.36838 -0.79826,-42.66998 -4.9043,-48.85092 -2.01985,-3.04052 -7.50923,-5.9918 -11.14474,-5.9918 -7.20903,0 -6.77292,-0.36227 -43.45548,36.09875 -18.98402,18.86936 -35.62104,34.86172 -36.97116,35.53857 -2.13865,1.07216 -6.68762,1.23063 -35.32502,1.23063 h -32.87026 l -3.56603,-2.2615 c -2.20328,-1.39729 -4.23921,-3.52239 -5.32762,-5.56098 -1.75806,-3.29283 -1.76161,-3.36501 -1.76161,-35.89829 0,-30.2993 0.10058,-32.788191 1.42578,-35.283427 0.78417,-1.476535 16.89245,-18.216988 35.79619,-37.201008 30.93366,-31.065038 34.46062,-34.858313 35.27249,-37.935814 1.61776,-6.1324 -0.27578,-12.2082922 -4.90511,-15.7392515 -6.9752,-5.32024565 -40.60752,-7.4826854 -60.68607,-3.9019014 C 298.08488,9.3546556 259.16742,38.192825 238.68487,79.066267 229.59844,97.19846 224.80015,115.45217 223.34879,137.40803 l -0.48168,7.2868 43.21361,43.17216 43.2136,43.17216 5.34004,-1.35133 c 8.32364,-2.10634 34.1834,-1.9298 44.07509,0.3009 14.37175,3.24102 28.71331,9.56799 40.24169,17.75319 3.35983,2.3855 11.45625,9.55359 17.99203,15.9291 l 11.88324,11.59183 2.33429,-0.97678 c 1.28385,-0.53723 4.56954,-2.24096 7.30153,-3.78607 z"
       style="opacity:1;fill:#4d4848;fill-opacity:1;stroke:#4d4848;stroke-width:0.76703107;stroke-linecap:square;stroke-miterlimit:4;stroke-dasharray:none;stroke-dashoffset:0;stroke-opacity:1" />
  </g>
</svg>
