<?xml version="1.0" encoding="UTF-8" standalone="no"?>
<svg
   xmlns:dc="http://purl.org/dc/elements/1.1/"
   xmlns:cc="http://creativecommons.org/ns#"
   xmlns:rdf="http://www.w3.org/1999/02/22-rdf-syntax-ns#"
   xmlns:svg="http://www.w3.org/2000/svg"
   xmlns="http://www.w3.org/2000/svg"
   xmlns:sodipodi="http://sodipodi.sourceforge.net/DTD/sodipodi-0.dtd"
   xmlns:inkscape="http://www.inkscape.org/namespaces/inkscape"
   viewBox="0 0 448 512"
   version="1.1"
   id="svg4"
   sodipodi:docname="user-graduate-solid-col.svg"
   inkscape:version="0.92.5 (2060ec1f9f, 2020-04-08)">
  <metadata
     id="metadata10">
    <rdf:RDF>
      <cc:Work
         rdf:about="">
        <dc:format>image/svg+xml</dc:format>
        <dc:type
           rdf:resource="http://purl.org/dc/dcmitype/StillImage" />
      </cc:Work>
    </rdf:RDF>
  </metadata>
  <defs
     id="defs8" />
  <sodipodi:namedview
     pagecolor="#ffffff"
     bordercolor="#666666"
     borderopacity="1"
     objecttolerance="10"
     gridtolerance="10"
     guidetolerance="10"
     inkscape:pageopacity="0"
     inkscape:pageshadow="2"
     inkscape:window-width="1920"
     inkscape:window-height="1151"
     id="namedview6"
     showgrid="false"
     inkscape:zoom="0.65186406"
     inkscape:cx="72.646204"
     inkscape:cy="340.00323"
     inkscape:window-x="0"
     inkscape:window-y="25"
     inkscape:window-maximized="1"
     inkscape:current-layer="svg4" />
  <!--! Font Awesome Pro 6.4.0 by @fontawesome - https://fontawesome.com License - https://fontawesome.com/license (Commercial License) Copyright 2023 Fonticons, Inc. -->
  <rect
     style="opacity:1;fill:#bebf32;fill-opacity:1;stroke:#bebf32;stroke-width:1;stroke-linecap:square;stroke-miterlimit:4;stroke-dasharray:none;stroke-dashoffset:0;stroke-opacity:1"
     id="rect828"
     width="451.01431"
     height="520.04706"
     x="-3.0681245"
     y="-4.9789515" />
  <path
     inkscape:connector-curvature="0"
     d="M 224,0.05078125 C 222.425,0.05078125 220.85078,0.2 219.30078,0.5 L 19.300781,40.5 C 8.1007814,42.7 0,52.6 0,64 0,74.3 6.5,83.299609 16,86.599609 V 158.40039 L 0.30078125,236.80078 c -1,4.7 0.1988281,9.49883 3.29882815,13.29883 C 6.6996094,253.89961 11.2,256 16,256 h 32 c 4.8,0 9.400391,-2.20039 12.400391,-5.90039 3,-3.7 4.198828,-8.59883 3.298828,-13.29883 L 48,158.40039 V 93.300781 l 48,9.599609 V 160 c 0,70.7 57.3,128 128,128 70.7,0 128,-57.3 128,-128 V 102.90039 L 428.69922,87.5 C 439.89922,85.3 448,75.4 448,64 448,52.6 439.89922,42.7 428.69922,40.5 l -200,-40 C 227.14922,0.2 225.575,0.05078125 224,0.05078125 Z"
     id="path824"
     style="fill:#ffffff;fill-opacity:1;stroke:#bebf32;stroke-opacity:1" />
  <path
     inkscape:connector-curvature="0"
     d="m 328.04492,326.45312 c -7.96417,0.0141 -15.74531,3.6711 -21.44531,9.7461 l -71,75.5 c -6.3,6.7 -16.99883,6.7 -23.29883,0 l -71,-75.5 c -5.7,-6.075 -13.48125,-9.73008 -21.44531,-9.74414 -2.65469,-0.005 -5.33008,0.39414 -7.95508,1.24414 C 89.353005,334.96024 68.965168,347.0373 51.958984,362.72266 20.014868,392.18578 0,434.38009 0,481.30078 0,498.20078 13.799219,512 30.699219,512 H 417.30078 C 434.20078,512 448,498.30078 448,481.30078 c 0,-71.9 -47,-132.70156 -112,-153.60156 -2.625,-0.85 -5.30035,-1.25078 -7.95508,-1.2461 z"
     id="path819"
     style="fill:#ffffff;fill-opacity:1;stroke:#bebf32;stroke-opacity:1" />
</svg>
