<?xml version="1.0" encoding="UTF-8" standalone="no"?>
<!-- Generator: Adobe Illustrator 26.3.1, SVG Export Plug-In . SVG Version: 6.00 Build 0)  -->

<svg
   version="1.1"
   id="Layer_1"
   x="0px"
   y="0px"
   viewBox="0 0 1500 1500"
   xml:space="preserve"
   sodipodi:docname="NMBU.svg"
   inkscape:version="1.1.2 (0a00cf5339, 2022-02-04)"
   width="1500"
   height="1500"
   xmlns:inkscape="http://www.inkscape.org/namespaces/inkscape"
   xmlns:sodipodi="http://sodipodi.sourceforge.net/DTD/sodipodi-0.dtd"
   xmlns="http://www.w3.org/2000/svg"
   xmlns:svg="http://www.w3.org/2000/svg"><defs
   id="defs79" /><sodipodi:namedview
   id="namedview77"
   pagecolor="#ffffff"
   bordercolor="#666666"
   borderopacity="1.0"
   inkscape:pageshadow="2"
   inkscape:pageopacity="0.0"
   inkscape:pagecheckerboard="0"
   showgrid="false"
   inkscape:zoom="0.25825431"
   inkscape:cx="1086.1387"
   inkscape:cy="625.35258"
   inkscape:window-width="1920"
   inkscape:window-height="1013"
   inkscape:window-x="0"
   inkscape:window-y="360"
   inkscape:window-maximized="1"
   inkscape:current-layer="g74"
   width="1500px" />
<style
   type="text/css"
   id="style2">
	.st0{fill:#FFFFFF;}
	.st1{fill:#010202;}
	.st2{fill:#00826D;}
</style>
<g
   id="g74"
   style="display:inline"
   transform="translate(-11.67,-8.88)">
	<path
   class="st2"
   d="m 173.37862,1047.082 h 59.17379 v 232.7908 h -58.2492 L 74.447457,1142.2782 v 137.5946 H 15.273673 V 1047.082 h 60.098373 l 98.931164,135.1946 V 1047.082 Z m 545.50832,-5.5998 V 808.69135 H 647.69348 L 584.82131,955.0856 522.87376,808.69135 h -73.96721 v 232.79085 h 59.1738 V 909.48739 l 54.55079,128.79491 h 43.45577 L 660.63775,911.08731 V 1041.4822 Z M 1453.0117,239.91376 v 141.59442 c 0,21.59915 -8.3213,47.19815 -47.1541,47.19815 -38.8328,0 -47.1542,-25.599 -47.1542,-47.19815 V 239.91376 h -60.0983 v 142.3944 c 0,58.39769 40.682,95.19624 107.2525,95.19624 67.4951,0 107.2525,-35.19861 107.2525,-95.19624 v -142.3944 z m -399.4231,353.58607 c 18.4919,11.19956 29.5869,29.59885 29.5869,50.39801 0,23.19909 -10.1704,41.59837 -28.6623,54.39784 -21.2655,14.39944 -47.154,15.9994 -72.11802,15.9994 H 874.21812 v -233.5908 h 108.17706 c 26.81312,0 47.15422,3.99984 62.87222,12.79948 20.341,11.19958 32.3606,31.99874 32.3606,52.79792 0.9246,15.1994 -6.4721,35.19862 -24.0394,47.19815 z M 934.31649,570.30074 h 51.77707 c 28.66234,0 31.43604,-11.99952 31.43604,-21.59914 0,-14.39944 -11.095,-22.39911 -32.36064,-22.39911 h -50.85247 z m 87.83611,71.99716 c 0,-6.39974 0,-26.39895 -36.98364,-26.39895 H 933.3919 v 49.59806 h 50.85248 c 14.7935,0 37.90822,-3.19988 37.90822,-23.19911 z m 292.1705,259.18979 H 993.49025 v -92.79634 h -58.24917 v 92.79634 H 827.98857 v 50.39803 H 935.24108 V 1229.4748 H 362.91964 v 50.398 h 608.38045 c 12.01969,0 22.19016,-8.7996 22.19016,-19.1992 V 951.88572 h 356.89195 c 12.0197,0 22.1902,-8.79968 22.1902,-19.19927 V 561.50108 h -58.2493 z M 552.46066,713.4951 h 58.24923 V 619.8988 H 718.88694 V 569.50078 H 610.70989 V 292.71168 H 1168.2379 V 241.51371 H 574.65083 c -12.01969,0 -22.19017,8.79964 -22.19017,19.19924 V 569.50078 H 195.5688 c -12.01969,0 -22.19018,8.79966 -22.19018,19.19925 v 363.18569 h 58.24919 V 619.8988 h 320.83285 z"
   id="path4"
   style="stroke-width:86.0027" />
	
</g>
</svg>
