<?xml version="1.0" encoding="UTF-8" standalone="no"?>
<!-- Created with Inkscape (http://www.inkscape.org/) -->

<svg
   version="1.1"
   id="svg2"
   xml:space="preserve"
   width="500"
   height="500"
   viewBox="0 0 500 500"
   sodipodi:docname="UiB.svg"
   inkscape:version="1.1.2 (0a00cf5339, 2022-02-04)"
   xmlns:inkscape="http://www.inkscape.org/namespaces/inkscape"
   xmlns:sodipodi="http://sodipodi.sourceforge.net/DTD/sodipodi-0.dtd"
   xmlns="http://www.w3.org/2000/svg"
   xmlns:svg="http://www.w3.org/2000/svg"><defs
     id="defs6"><clipPath
       clipPathUnits="userSpaceOnUse"
       id="clipPath16"><path
         d="M 0,283.465 H 283.465 V 0 H 0 Z"
         id="path14" /></clipPath></defs><sodipodi:namedview
     id="namedview4"
     pagecolor="#ffffff"
     bordercolor="#666666"
     borderopacity="1.0"
     inkscape:pageshadow="2"
     inkscape:pageopacity="0.0"
     inkscape:pagecheckerboard="0"
     showgrid="false"
     inkscape:zoom="7.6094048"
     inkscape:cx="494.45392"
     inkscape:cy="476.44988"
     inkscape:window-width="1920"
     inkscape:window-height="1013"
     inkscape:window-x="0"
     inkscape:window-y="360"
     inkscape:window-maximized="1"
     inkscape:current-layer="g8" /><g
     id="g8"
     inkscape:groupmode="layer"
     inkscape:label="UiB_PositivEmblem"
     transform="matrix(1.3333333,0,0,-1.3333333,-37.795866,340.15799)"><g
       id="g10"
       transform="matrix(1.654709,0,0,1.6546825,-18.55897,-167.02162)"><g
         id="g12"
         clip-path="url(#clipPath16)"><g
           id="g18"
           transform="translate(162.1109,104.2605)"><path
             d="m 0,0 c -1.102,1.265 -2.699,0.909 -2.699,0.909 0.075,0.91 -0.031,1.098 -0.038,1.784 0.277,0 0.853,0.017 0.914,0.651 C -1.754,4.068 -2.864,3.89 -2.864,3.89 -3.067,5.112 -3.279,5.81 -3.657,6.861 -1.966,6.763 -0.895,6.396 -0.243,5.111 0.437,3.775 0.548,1.452 0,0 m -2.181,-5.175 c -0.973,-0.743 -1.941,-0.766 -2.328,-0.658 l -0.017,0.054 c 0.106,0.031 1.027,0.699 1.475,1.739 0.596,1.381 0.283,3.317 0.283,3.317 0,0 1.697,0.082 2.01,-0.987 0.238,-1.258 -0.502,-2.761 -1.423,-3.465 m -7.668,4.327 c 0.249,1.895 0.527,2.51 0.527,2.51 0,0 0.283,0.51 0.902,0.543 0.619,0.033 1.185,0.39 1.162,0.902 -0.03,0.712 -1.668,0.471 -1.668,0.471 0,0 0.465,2.177 -0.774,4.727 0.594,0.471 1.758,0.497 2.968,0.098 1.97,-1.134 2.656,-7.094 1.92,-9.924 -1.708,2.315 -4.189,1.546 -5.037,0.673 m -1.167,3.66 c 0,0 -0.72,0.545 -1.703,0.717 -1.325,0.23 -1.427,-0.893 -0.588,-1.127 0.924,-0.258 1.473,-0.504 1.94,-1.166 -0.038,-1.225 -0.428,-3.063 -0.428,-3.063 -1.178,1.559 -3.202,1.518 -4.454,0.182 -0.852,3.628 0.049,4.791 1.586,7.159 1.374,2.12 1.35,2.047 1.7,2.151 0.375,0.112 1.123,0.239 1.123,0.239 0,0 1.057,-0.664 1.075,-2.486 0.019,-1.822 -0.251,-2.606 -0.251,-2.606 m -13.493,-4.457 c -1.252,1.336 -3.276,1.377 -4.453,-0.182 0,0 -0.39,1.838 -0.429,3.063 0.467,0.662 1.016,0.908 1.94,1.166 0.839,0.234 0.737,1.357 -0.587,1.127 -0.984,-0.172 -1.703,-0.717 -1.703,-0.717 0,0 -0.27,0.784 -0.252,2.606 0.019,1.822 1.076,2.486 1.076,2.486 0,0 0.747,-0.127 1.122,-0.239 0.35,-0.104 0.326,-0.031 1.701,-2.151 1.537,-2.368 2.438,-3.531 1.585,-7.159 m -11.437,0.124 c -0.735,2.83 -0.049,8.79 1.921,9.924 1.209,0.399 2.373,0.373 2.967,-0.098 -1.238,-2.55 -0.774,-4.727 -0.774,-4.727 0,0 -1.638,0.241 -1.668,-0.471 -0.022,-0.512 0.543,-0.869 1.162,-0.902 0.619,-0.033 0.902,-0.543 0.902,-0.543 0,0 0.279,-0.615 0.528,-2.51 -0.848,0.873 -3.33,1.642 -5.038,-0.673 m -0.303,-4.312 c -0.387,-0.108 -1.355,-0.085 -2.328,0.658 -0.921,0.704 -1.661,2.207 -1.422,3.465 0.312,1.069 2.009,0.987 2.009,0.987 0,0 -0.313,-1.936 0.283,-3.317 0.449,-1.04 1.37,-1.707 1.476,-1.739 z m -4.266,10.944 c 0.652,1.285 1.723,1.652 3.415,1.75 -0.379,-1.051 -0.591,-1.749 -0.794,-2.971 0,0 -1.11,0.178 -1.04,-0.546 0.06,-0.634 0.637,-0.651 0.913,-0.651 -0.007,-0.686 -0.112,-0.874 -0.038,-1.784 0,0 -1.597,0.356 -2.698,-0.909 -0.548,1.452 -0.438,3.775 0.242,5.111 m 30.887,-12.68 0.016,0.161 c 0,0 0.883,0.861 0.845,2.471 -0.038,1.532 -0.652,2.402 -0.652,2.402 0,0 0.656,1.021 1.969,0.593 1.313,-0.427 1.273,-1.482 1.271,-1.854 -0.008,-2.626 -2.876,-3.7 -3.449,-3.773 m -2.69,-0.089 c -1.314,0.376 -2.78,1.766 -3.23,2.715 -0.375,0.792 -0.146,1.98 0.688,2.334 1.234,0.525 2.028,-0.519 1.953,-1.268 -0.293,-2.922 0.692,-3.714 0.692,-3.714 z m -12.892,2.715 c -0.45,-0.949 -1.916,-2.339 -3.229,-2.715 l -0.104,0.067 c 0,0 0.986,0.792 0.692,3.714 -0.075,0.749 0.72,1.793 1.953,1.268 0.834,-0.354 1.063,-1.542 0.688,-2.334 m -9.369,1.147 c -10e-4,0.372 -0.042,1.427 1.271,1.854 1.313,0.428 1.97,-0.593 1.97,-0.593 0,0 -0.615,-0.87 -0.652,-2.402 -0.039,-1.61 0.844,-2.471 0.844,-2.471 l 0.016,-0.161 c -0.573,0.073 -3.44,1.147 -3.449,3.773 m -15.934,54.421 c 0.593,0.428 1.45,1.207 1.869,1.664 0.419,0.458 0.783,0.796 0.783,0.796 0,0 0.652,0.224 0.827,0.175 0.176,-0.049 0.234,-0.185 0.234,-0.185 0,0 -0.676,-1.418 -1.562,-2.743 -0.885,-1.323 -1.635,-1.947 -1.635,-1.947 -0.087,-0.068 -0.672,-0.048 -1.013,0.633 -0.341,0.682 -0.097,1.178 0.497,1.607 m 0.254,11.736 c 0,0 3.808,2.072 5.307,3.99 1.5,1.917 2.697,4.654 2.944,4.996 0.246,0.341 0.892,0.607 0.797,-0.152 -0.095,-0.759 -1.887,-5.932 -3.159,-7.659 -1.271,-1.728 -4.352,-3.396 -4.902,-3.547 -0.911,0.588 -1.177,1.936 -0.987,2.372 m 2.577,7.148 c 0.076,0.763 0.158,2.494 0.57,3.305 0.105,0.109 0.428,0.27 0.548,0.346 0.099,-0.155 0.141,-0.485 0.162,-0.726 0.04,-0.467 0.588,-4.082 0.588,-4.082 0,0 0.041,-0.326 -0.629,-0.65 -0.671,-0.325 -1.036,-0.305 -1.117,-0.244 0,0 -0.203,1.239 -0.122,2.051 m 2.454,21.727 c 0.25,0.139 1.161,-0.398 1.794,-0.451 0.351,-0.029 0.644,0.491 0.644,0.739 0,0.373 0.125,0.17 -1.683,1.217 -0.57,0.329 -0.412,1.346 -0.066,1.901 0.271,0.434 0.837,-0.159 1.201,-0.448 0.362,-0.288 0.971,-0.734 1.163,-0.659 0.192,0.074 0.443,0.991 0.35,1.206 -0.197,0.452 -1.411,0.795 -1.744,1.547 -0.254,0.571 0.069,0.988 0.328,1.548 0.128,0.276 1.151,0.675 1.657,0.844 0.444,0.148 2.811,-0.528 3.204,-0.889 0.478,-0.439 0.552,-1.104 1.086,-2.172 0.534,-1.067 1.244,-1.871 1.446,-2.157 0.363,-0.513 -1.156,-1.141 -1.692,-0.851 -0.819,0.445 -1.485,1.036 -2.104,1.592 -0.619,0.555 -0.946,-0.453 -0.786,-0.891 0.161,-0.438 0.567,-1.029 1.478,-1.717 0.665,-0.501 0.598,-0.674 0.423,-1.1 -0.2,-0.491 -0.524,-1.446 -0.655,-2.14 -0.099,-0.526 -0.349,-0.743 -0.715,-0.663 -3.302,0.724 -4.747,-0.212 -4.794,-0.672 -0.055,-0.523 1.264,-0.265 2.583,-0.46 1.803,-0.266 1.67,-0.429 1.965,-0.738 0.86,-0.903 0.875,-2.924 0.774,-3.128 -0.181,-0.363 -0.615,-0.551 -1.612,-1.293 -0.986,-0.734 -0.938,-0.972 -0.98,-1.843 -0.04,-0.836 0.483,-1.001 0.986,-0.155 0.449,0.755 1.812,1.856 2.527,2.006 0.715,0.149 1.322,-0.678 1.322,-0.678 0,0 0.194,-0.218 -0.379,-0.79 -1.228,-1.225 -1.553,-2.77 -1.182,-2.936 0.269,-0.121 0.374,0.404 1.163,1.497 0.833,1.156 1.546,1.332 1.546,1.332 0,0 0.651,-0.096 1.419,-0.331 0.769,-0.235 1.348,-0.651 1.348,-0.651 0,0 -0.658,-4.703 0.137,-4.838 0.594,-0.1 0.961,4.506 1.644,4.56 0.683,0.053 0.982,-1.356 1.399,-1.281 0.416,0.075 0.008,1.852 0.416,1.986 1.24,0.403 1.873,1.045 2.513,1.75 0.653,0.72 1.256,0.204 1.256,0.204 0,0 0.054,-2.371 -0.288,-2.253 -0.342,0.117 -0.267,0.747 -0.811,0.395 -0.545,-0.353 0.502,-2.168 0.854,-2.691 0.352,-0.523 0.341,-1.111 -0.492,-0.684 -0.832,0.427 -1.014,2.072 -1.42,1.132 -0.405,-0.939 0.246,-2.082 0.886,-2.669 0.641,-0.587 1.377,-0.703 1.377,-0.703 0,0 0.366,-1.059 -0.255,-1.587 -0.932,-0.794 -1.773,-0.864 -1.773,-0.864 0,0 -1.738,1.878 -1.847,3.926 -0.32,0.182 -0.494,-0.12 -0.573,-0.633 -0.184,-1.182 0.214,-3.662 -0.386,-3.865 -0.327,-0.111 -1.451,-0.147 -2.318,-0.097 -0.725,0.042 -0.927,0.361 -1.099,0.917 -0.17,0.555 0.043,1.347 -0.183,1.39 -0.4,0.076 -0.748,-0.395 -0.929,-1.004 -0.182,-0.609 -0.418,-0.697 -1.055,-0.659 -0.402,0.023 -0.869,0.209 -1.694,0.704 -1.082,0.65 0.624,3.767 0.998,4.344 0.374,0.576 -0.043,0.822 -0.758,0.106 -0.716,-0.715 -1.463,-2.317 -1.751,-2.904 -0.289,-0.587 -0.641,-0.577 -1.303,-0.032 -0.662,0.544 -1.602,0.716 -2.029,1.655 -0.427,0.94 -0.192,1.313 0.107,1.816 0.299,0.501 0.213,0.672 -0.064,0.672 -0.278,0 -0.64,-0.555 -0.64,-0.555 0,0 -0.441,-0.083 -0.703,0.278 -0.941,1.302 -1.098,3.558 -1.058,4.048 0.057,0.697 1.291,0.986 2.039,1.135 0.748,0.149 0.779,1.252 0.149,1.22 -0.63,-0.032 -1.063,-0.079 -1.839,-0.205 -0.891,-0.144 -1.071,2.195 -1.136,4.141 -0.063,1.89 0.278,3.341 0.614,3.529 m -1.524,14.27 c -0.045,1.074 0.326,2.309 0.537,2.626 0.266,0.398 0.222,0.091 0.843,-1.172 0.487,-0.992 1.602,-1.627 2.449,-1.837 1.371,-0.339 2.403,0.038 4.94,-0.276 2.537,-0.313 3.653,-1.592 4.627,-2.496 1.214,-1.127 2.897,-2.189 2.674,-2.388 -0.355,-0.315 -1.655,-0.163 -3.25,1.36 -1.095,1.045 -2.003,1.337 -2.359,0.825 -0.467,-0.672 2.413,-2.912 2.129,-3.241 -0.283,-0.328 -1.936,1.403 -2.352,1.062 -0.199,-0.163 -0.145,-0.43 -0.025,-0.699 0.118,-0.269 0.909,-1.313 0.487,-1.674 -0.384,-0.327 -0.971,0.717 -1.417,1.373 -0.493,0.724 -1.318,0.903 -2.074,0.903 -0.568,0 -2.926,0.032 -4.851,1.435 -1.925,1.402 -2.313,3.124 -2.358,4.199 m 18.243,0.346 c 1.961,0.565 3.513,-0.804 3.706,-1.614 -0.24,-0.552 -0.59,-0.592 -1.189,-0.31 -1.138,0.537 -2.713,0.359 -3.451,-1.513 -0.159,-0.406 -0.529,-0.399 -1.024,-0.21 -0.375,0.742 -0.039,3.072 1.958,3.647 m 4.304,-4.678 c -0.072,-0.595 -0.56,-0.772 -0.933,-0.565 -0.898,0.499 -1.857,0.142 -2.118,-0.921 -0.134,-0.545 -0.495,-0.692 -1.114,-0.398 -0.434,0.736 -0.264,2.58 1.178,3.113 1.38,0.511 2.702,-0.464 2.987,-1.229 m 3.843,5.606 c 1.209,0 2.838,-0.699 3.085,-2.428 -0.14,-0.739 -0.685,-0.638 -0.959,-0.292 -0.473,0.598 -1.166,0.995 -2.126,0.995 -0.961,0 -1.654,-0.397 -2.127,-0.995 -0.275,-0.346 -0.82,-0.447 -0.96,0.292 0.247,1.729 1.877,2.428 3.087,2.428 m 6.828,-4.377 c 1.441,-0.533 1.694,-2.456 1.178,-3.113 -0.62,-0.294 -0.981,-0.147 -1.115,0.398 -0.26,1.063 -1.22,1.42 -2.118,0.921 -0.372,-0.207 -0.86,-0.03 -0.933,0.565 0.285,0.765 1.607,1.74 2.988,1.229 m 1.316,3.449 c 1.998,-0.575 2.334,-2.905 1.958,-3.647 -0.495,-0.189 -0.864,-0.196 -1.024,0.21 -0.737,1.872 -2.312,2.05 -3.45,1.513 -0.6,-0.282 -0.95,-0.242 -1.189,0.31 0.193,0.81 1.744,2.179 3.705,1.614 m 4.844,-3.501 c 0.973,0.904 2.089,2.183 4.626,2.496 2.538,0.314 3.569,-0.063 4.94,0.276 0.847,0.21 1.962,0.845 2.449,1.837 0.622,1.263 0.577,1.57 0.843,1.172 0.211,-0.317 0.582,-1.552 0.537,-2.626 -0.045,-1.075 -0.432,-2.797 -2.358,-4.199 -1.925,-1.403 -4.283,-1.435 -4.85,-1.435 -0.757,0 -1.583,-0.179 -2.075,-0.903 -0.446,-0.656 -1.033,-1.7 -1.418,-1.373 -0.421,0.361 0.37,1.405 0.489,1.674 0.119,0.269 0.173,0.536 -0.026,0.699 -0.416,0.341 -2.068,-1.39 -2.352,-1.062 -0.283,0.329 2.595,2.569 2.129,3.241 -0.356,0.512 -1.264,0.22 -2.359,-0.825 -1.594,-1.523 -2.895,-1.675 -3.25,-1.36 -0.223,0.199 1.46,1.261 2.675,2.388 M 5.113,87.707 C 5.048,85.761 4.868,83.422 3.977,83.566 3.201,83.692 2.768,83.739 2.139,83.771 1.509,83.803 1.54,82.7 2.287,82.551 3.035,82.402 4.269,82.113 4.326,81.416 4.366,80.926 4.209,78.669 3.269,77.368 3.007,77.007 2.566,77.09 2.566,77.09 c 0,0 -0.363,0.555 -0.641,0.555 -0.277,0 -0.363,-0.171 -0.064,-0.672 0.299,-0.503 0.534,-0.876 0.107,-1.816 -0.427,-0.939 -1.367,-1.111 -2.029,-1.655 -0.661,-0.545 -1.014,-0.555 -1.302,0.032 -0.289,0.587 -1.036,2.189 -1.751,2.904 -0.716,0.716 -1.132,0.47 -0.758,-0.106 0.374,-0.577 2.079,-3.694 0.997,-4.344 -0.825,-0.495 -1.291,-0.681 -1.694,-0.704 -0.636,-0.038 -0.873,0.05 -1.055,0.659 -0.181,0.609 -0.53,1.08 -0.929,1.004 -0.226,-0.043 -0.012,-0.835 -0.184,-1.39 -0.171,-0.556 -0.372,-0.875 -1.098,-0.917 -0.866,-0.05 -1.991,-0.014 -2.317,0.097 -0.601,0.203 -0.203,2.683 -0.386,3.865 -0.08,0.513 -0.254,0.815 -0.574,0.633 -0.109,-2.048 -1.847,-3.926 -1.847,-3.926 0,0 -0.841,0.07 -1.773,0.864 -0.621,0.528 -0.255,1.587 -0.255,1.587 0,0 0.736,0.116 1.377,0.703 0.641,0.587 1.292,1.73 0.886,2.669 -0.406,0.94 -0.587,-0.705 -1.42,-1.132 -0.833,-0.427 -0.843,0.161 -0.491,0.684 0.352,0.523 1.398,2.338 0.854,2.691 -0.545,0.352 -0.47,-0.278 -0.811,-0.395 -0.342,-0.118 -0.289,2.253 -0.289,2.253 0,0 0.603,0.515 1.256,-0.204 0.64,-0.705 1.273,-1.347 2.513,-1.75 0.409,-0.134 0,-1.911 0.417,-1.987 0.416,-0.074 0.715,1.335 1.398,1.282 0.684,-0.054 1.05,-4.66 1.645,-4.56 0.795,0.135 0.136,4.838 0.136,4.838 0,0 0.579,0.416 1.348,0.651 0.769,0.235 1.42,0.331 1.42,0.331 0,0 0.712,-0.176 1.545,-1.332 0.789,-1.093 0.894,-1.618 1.164,-1.497 0.37,0.166 0.045,1.711 -1.182,2.935 -0.574,0.573 -0.379,0.791 -0.379,0.791 0,0 0.606,0.827 1.321,0.678 0.715,-0.15 2.078,-1.251 2.528,-2.006 0.502,-0.846 1.025,-0.681 0.985,0.155 -0.042,0.871 0.006,1.109 -0.979,1.843 -0.998,0.742 -1.432,0.93 -1.612,1.293 -0.102,0.204 -0.087,2.225 0.774,3.128 0.294,0.309 0.161,0.472 1.964,0.738 1.319,0.195 2.638,-0.063 2.584,0.46 -0.048,0.46 -1.492,1.396 -4.794,0.672 -0.366,-0.08 -0.617,0.137 -0.716,0.663 -0.131,0.694 -0.455,1.649 -0.655,2.14 -0.175,0.426 -0.242,0.599 0.423,1.1 0.911,0.688 1.318,1.279 1.478,1.717 0.16,0.438 -0.166,1.446 -0.785,0.891 -0.62,-0.556 -1.285,-1.147 -2.105,-1.592 -0.536,-0.29 -2.055,0.338 -1.692,0.85 0.203,0.287 0.912,1.091 1.446,2.158 0.534,1.068 0.608,1.733 1.086,2.172 0.392,0.361 2.76,1.037 3.204,0.889 0.507,-0.169 1.53,-0.568 1.657,-0.844 0.26,-0.56 0.582,-0.977 0.329,-1.548 -0.334,-0.752 -1.548,-1.095 -1.745,-1.547 -0.093,-0.215 0.158,-1.132 0.35,-1.206 0.192,-0.075 0.801,0.371 1.164,0.659 0.363,0.289 0.93,0.882 1.2,0.448 C 4.156,94.087 4.313,93.07 3.744,92.741 1.936,91.694 2.062,91.897 2.062,91.524 c 0,-0.248 0.293,-0.768 0.643,-0.739 0.634,0.053 1.545,0.59 1.794,0.451 0.336,-0.188 0.677,-1.639 0.614,-3.529 M 5.835,73.16 C 5.956,73.084 6.279,72.923 6.383,72.814 6.796,72.003 6.878,70.272 6.953,69.509 7.035,68.697 6.832,67.458 6.832,67.458 6.751,67.397 6.385,67.377 5.714,67.702 c -0.67,0.324 -0.629,0.65 -0.629,0.65 0,0 0.549,3.615 0.589,4.082 0.021,0.241 0.063,0.571 0.161,0.726 M 9.53,62.361 c 0.19,-0.436 -0.076,-1.784 -0.987,-2.372 -0.55,0.151 -3.63,1.819 -4.902,3.547 -1.272,1.727 -3.064,6.9 -3.158,7.659 -0.095,0.759 0.55,0.493 0.796,0.152 0.247,-0.342 1.444,-3.079 2.944,-4.996 1.499,-1.918 5.307,-3.99 5.307,-3.99 M 9.785,50.625 C 10.378,50.196 10.622,49.7 10.281,49.018 9.94,48.337 9.356,48.317 9.268,48.385 c 0,0 -0.749,0.624 -1.635,1.947 -0.886,1.325 -1.562,2.743 -1.562,2.743 0,0 0.059,0.136 0.234,0.185 0.175,0.049 0.827,-0.176 0.827,-0.176 0,0 0.365,-0.337 0.783,-0.795 0.419,-0.457 1.276,-1.236 1.87,-1.664 M -0.255,8.781 c -0.34,-0.267 -0.854,-0.603 -1.286,-0.285 5.279,15.359 7.234,38.163 7.45,40.515 0,0 -0.08,0.282 0.257,0.189 C 6.504,49.107 7.382,47.614 7.985,46.983 8.588,46.351 5.121,19.929 -0.255,8.781 m -11.254,2.463 c -1.547,-1.445 -1.7,-0.818 -3.861,-2.481 -2.05,-1.576 -1.931,-3.043 -2.621,-3.222 0,0 -0.435,2.289 0.703,4.104 1.138,1.816 3.503,3.133 4.386,4.131 0.881,0.997 1.508,1.675 1.688,2.506 0.178,0.831 0.703,0.268 0.728,-0.039 0.026,-0.307 0.724,-3.368 -1.023,-4.999 m -7.379,-1.224 c -0.202,0.367 -0.202,0.898 -0.074,2.402 0.129,1.503 0.697,2.028 1.321,2.358 0.623,0.33 2.161,1.179 3.356,3.027 1.619,2.504 1.374,4.112 1.374,4.112 l 0.165,0.129 c 0,0 0.803,-0.745 0.701,-2.846 -0.111,-2.29 -0.779,-4.09 -3.14,-5.772 -2.719,-1.936 -3.447,-3.355 -3.447,-3.355 0,0 -0.054,-0.422 -0.256,-0.055 m -1.476,7.365 c -1.582,0 -2.935,1.234 -3.135,2.686 -0.16,1.162 0.206,2.481 0.732,3.679 0.526,1.197 1.464,2.109 1.464,2.109 0,0 0.172,-0.57 0.195,-1.499 0.039,-1.546 -0.597,-2.928 -0.909,-3.385 0.059,-0.392 0.361,-0.567 0.602,-0.556 0.757,0.036 0.541,1.798 1.188,1.798 0.424,-1.876 -0.36,-2.307 -0.536,-2.664 0.269,-0.206 0.424,-0.355 0.711,-0.263 1.14,0.365 1.559,1.658 1.409,2.601 -0.197,1.232 -0.972,1.757 -1.22,2.437 0.008,0.93 0.438,1.531 0.438,1.531 0,0 0.997,-0.708 1.524,-1.905 0.526,-1.198 0.831,-2.721 0.672,-3.883 -0.2,-1.452 -1.553,-2.686 -3.135,-2.686 m -1.475,-7.365 c -0.202,-0.367 -0.256,0.055 -0.256,0.055 0,0 -0.728,1.419 -3.447,3.355 -2.362,1.682 -3.03,3.482 -3.14,5.772 -0.102,2.101 0.701,2.846 0.701,2.846 l 0.165,-0.129 c 0,0 -0.245,-1.608 1.374,-4.112 1.195,-1.848 2.733,-2.697 3.356,-3.027 0.624,-0.33 1.192,-0.855 1.32,-2.358 0.129,-1.504 0.129,-2.035 -0.073,-2.402 m -0.898,-4.479 c -0.691,0.179 -0.572,1.646 -2.622,3.222 -2.161,1.663 -2.314,1.036 -3.861,2.481 -1.746,1.631 -1.049,4.693 -1.023,4.999 0.025,0.307 0.55,0.87 0.729,0.039 0.179,-0.831 0.805,-1.509 1.687,-2.506 0.883,-0.998 3.248,-2.315 4.387,-4.131 1.138,-1.815 0.703,-4.104 0.703,-4.104 m -21.644,51.488 c -1.386,-1.328 -4.018,-2.194 -4.018,-2.194 0,0 -0.538,-0.268 -0.823,0.32 -0.285,0.589 -0.185,2.352 -0.185,2.352 0,0 3.692,1.468 5.363,3.518 1.179,1.448 1.533,2.577 1.666,3.051 0.133,0.475 0.569,0.835 0.588,0.342 0.019,-0.494 -0.127,-5.026 -2.591,-7.389 m 3.975,2.551 c 0.019,0.046 0.51,0.439 0.501,0.304 -1.28,-18.73 4.004,-47.507 4.095,-47.979 0.254,-1.304 -1.083,-3.07 -1.238,-2.699 -4.055,9.699 -6.967,38.673 -7.029,42.42 -0.025,1.516 1.827,3.427 3.671,7.954 m 12.391,32.079 c -0.276,0.721 1.061,1.233 1.793,1.385 0.999,0.208 1.858,-0.056 2.488,-0.313 0.29,-0.118 0.676,-0.617 0.013,-0.693 -0.662,-0.077 -1.025,-0.052 -1.658,-0.185 -1.053,-0.222 -2.348,-0.944 -2.636,-0.194 m -2.259,-0.124 c 2.816,-0.952 3.866,-4.192 2.904,-7.037 -0.961,-2.844 -3.863,-4.303 -6.679,-3.35 -2.817,0.952 -4.028,4.118 -3.066,6.962 0.961,2.844 4.024,4.378 6.841,3.425 m 2.135,4.696 c -0.226,0.034 -1.762,0.669 -4.374,-0.396 -1.175,-0.479 -2.033,-0.308 -2.188,-0.045 -0.691,1.171 2.782,1.85 3.665,1.888 2.136,0.09 2.88,-0.791 3.066,-1.052 0.169,-0.237 0.057,-0.429 -0.169,-0.395 m 2.218,-1.475 c 0.394,-0.218 0.292,-0.75 -0.396,-0.681 -1.029,0.103 -1.312,0.135 -3.06,-0.436 -1.983,-0.648 -2.753,-0.092 -2.95,0.031 -0.197,0.122 -0.658,0.951 0.062,0.953 1.592,0.002 2.554,0.532 3.688,0.645 1.133,0.113 2.211,-0.264 2.656,-0.512 m 2.906,3.101 c 0.076,-0.482 -0.232,-0.812 -0.524,-0.658 -0.428,0.892 -2.083,0.259 -1.533,-0.905 -0.023,-0.268 -0.45,-0.586 -0.915,-0.228 -0.661,0.509 -1.097,2.041 0.294,2.855 1.097,0.642 2.506,0.019 2.678,-1.064 m 4.379,3.171 c -0.389,0.291 -0.854,0.768 -1.726,0.768 -0.873,0 -1.338,-0.477 -1.728,-0.768 -0.522,-0.39 -0.796,10e-4 -1.007,0.297 0.099,0.931 1.33,2.137 2.735,2.137 1.405,0 2.634,-1.206 2.733,-2.137 -0.21,-0.296 -0.485,-0.687 -1.007,-0.297 m 3.903,-4.957 c -0.464,-0.36 -0.892,-0.044 -0.916,0.224 0.545,1.166 -1.113,1.792 -1.537,0.898 -0.292,-0.155 -0.601,0.174 -0.527,0.657 0.167,1.083 1.574,1.712 2.673,1.075 1.395,-0.809 0.966,-2.341 0.307,-2.854 m 2.58,-0.803 c 1.134,-0.113 2.095,-0.643 3.688,-0.645 0.72,-0.002 0.259,-0.831 0.061,-0.953 -0.196,-0.123 -0.966,-0.679 -2.95,-0.031 -1.747,0.571 -2.03,0.539 -3.059,0.436 -0.688,-0.069 -0.789,0.463 -0.397,0.681 0.446,0.248 1.523,0.625 2.657,0.512 m 6.124,0.522 c -0.155,-0.263 -1.013,-0.434 -2.189,0.045 -2.611,1.065 -4.147,0.43 -4.373,0.396 -0.225,-0.034 -0.338,0.158 -0.169,0.395 0.186,0.261 0.931,1.142 3.066,1.052 0.882,-0.038 4.357,-0.717 3.665,-1.888 m -4.426,-4.255 c 2.817,0.953 5.88,-0.581 6.841,-3.425 0.963,-2.844 -0.249,-6.01 -3.066,-6.962 -2.817,-0.953 -5.717,0.506 -6.679,3.35 -0.962,2.845 0.087,6.085 2.904,7.037 m -4.896,0.318 c -0.634,0.133 -0.996,0.108 -1.658,0.185 -0.663,0.076 -0.277,0.575 0.013,0.693 0.63,0.257 1.489,0.521 2.487,0.313 0.734,-0.152 2.07,-0.664 1.794,-1.385 -0.288,-0.75 -1.583,-0.028 -2.636,0.194 m 9.902,-45.147 c -0.066,0.559 -0.151,1.48 0.324,1.627 0.613,-0.325 1.299,-1.261 1.79,-2.346 0.765,-1.695 1.086,-3.85 -0.256,-4.445 -2.411,-1.07 -4.335,2.077 -4.742,4.056 -0.345,1.681 0.714,2.078 0.714,2.078 0,0 0.552,-1.282 1.007,-2.058 0.543,-0.927 1.303,-1.908 1.811,-1.744 0.508,0.164 -0.474,1.362 -0.648,2.832 m -11.237,3.569 c 0.101,0.762 0.772,0.88 0.772,0.88 0,0 0.409,-2.166 0.962,-3.439 0.553,-1.272 1.889,-2.744 2.506,-2.449 0.617,0.296 -0.143,1.021 -0.62,2.574 -0.572,1.865 -0.206,3.535 -0.206,3.535 0,0 0.474,0.15 0.729,-0.563 1.284,-3.593 1.756,-3.357 2.619,-5.085 0.843,-1.686 0.354,-3.477 -1.635,-3.841 -4.904,-0.896 -5.286,7.178 -5.127,8.388 m -1.155,-18.448 c 0,0 1.667,-3.86 2.673,-3.437 0.585,0.245 -1.353,2.1 -1.385,4.249 0.223,0.414 0.741,0.31 0.741,0.31 0,0 0.52,-0.776 1.253,-1.337 1.05,-0.803 3.699,-5.611 0.815,-6.795 -3.103,-1.272 -5.124,3.501 -5.036,5.26 0.087,1.758 0.939,1.75 0.939,1.75 m -6.629,7.985 c 0.214,4.803 1.77,6.321 1.77,6.321 0,0 0.35,-0.453 0.309,-0.932 -0.028,-0.351 -0.594,-2.536 -0.607,-3.708 -0.013,-1.172 0.363,-1.524 0.78,-1.355 0.416,0.169 -0.337,1.641 0.65,1.727 0.667,0.058 0.956,-1.674 0.98,-3.379 0.027,-1.834 -0.402,-2.541 -0.402,-2.541 0.678,-0.551 1.486,0.523 1.652,2.351 0.152,1.665 -0.085,2.71 0.339,2.71 0.391,0 0.374,-0.683 0.359,-1.505 -0.013,-0.647 -0.053,-1.396 0.17,-1.544 0.375,-0.249 0.957,1.403 0.957,2.867 0,1.172 -0.401,2.396 -0.431,2.747 -0.04,0.479 0.151,0.887 0.151,0.887 0,0 1.32,0.157 1.534,-4.646 0.137,-3.063 -1.34,-6.833 -4.105,-6.833 -2.766,0 -4.243,3.77 -4.106,6.833 m -1.701,-8.2 c 0.733,0.561 1.253,1.337 1.253,1.337 0,0 0.518,0.104 0.74,-0.31 -0.031,-2.149 -1.969,-4.004 -1.384,-4.249 1.006,-0.423 2.673,3.437 2.673,3.437 0,0 0.852,0.008 0.939,-1.75 0.088,-1.759 -1.933,-6.532 -5.037,-5.26 -2.883,1.184 -0.234,5.992 0.816,6.795 m 1.922,32.614 c 0.359,0.735 0.884,0.27 0.884,0.27 0,0 -0.476,-1.73 -0.271,-3.62 0.137,-1.255 0.48,-2.039 0.935,-2.012 0.514,0.031 0.481,0.979 0.496,1.934 0.006,0.367 0.516,0.544 0.593,0.188 0.278,-1.276 -0.346,-3.533 0.294,-5.838 0.248,-0.896 1.254,-1.909 1.62,-1.454 0.159,0.198 0.136,0.52 0.053,0.886 -0.077,0.343 -0.202,0.727 -0.284,1.084 -0.59,2.545 0.258,6.064 0.782,7.486 0.126,0.342 0.631,-0.419 0.598,-1.144 -0.034,-0.778 -0.186,-2.52 0.204,-4.429 0.175,-0.859 0.865,-0.352 1.225,1.105 0.537,2.178 -0.244,5.814 -0.244,5.814 0,0 0.524,0.465 0.885,-0.27 0.359,-0.735 1.439,-6.043 0.6,-9.462 -0.552,-2.245 -1.615,-4.435 -4.485,-4.435 h -10e-4 c -2.87,0 -3.933,2.19 -4.484,4.435 -0.84,3.419 0.239,8.727 0.6,9.462 m 2.255,27.548 c 0.221,-0.118 0.163,-0.32 0.018,-0.523 -0.785,-1.095 -1.86,-2.375 -2.849,-1.68 -0.328,0.231 -0.094,0.953 1.031,1.626 0.363,0.218 1.357,0.816 1.8,0.577 m 3.487,6.478 c -0.152,-0.916 -0.386,-1.166 -0.568,-1.389 -0.115,-0.14 -0.444,0.01 -0.38,0.213 0.063,0.204 0.209,1.493 -0.909,1.493 -1.12,0 -0.974,-1.289 -0.911,-1.493 0.065,-0.203 -0.265,-0.353 -0.379,-0.213 -0.183,0.223 -0.416,0.473 -0.569,1.389 -0.153,0.917 0.61,2.078 1.859,2.078 1.247,0 2.01,-1.161 1.857,-2.078 m -0.247,-7.001 c -0.146,0.203 -0.203,0.405 0.018,0.523 0.443,0.239 1.436,-0.359 1.8,-0.577 1.125,-0.673 1.359,-1.395 1.031,-1.626 -0.989,-0.695 -2.064,0.585 -2.849,1.68 m -3.173,-2.205 c 0.013,0.214 0.352,2.318 1.562,2.318 1.21,0 1.548,-2.104 1.563,-2.318 0.028,-0.434 -0.305,-0.774 -0.705,-0.612 -0.626,0.253 -0.189,1.605 -0.858,1.605 -0.669,0 -0.233,-1.352 -0.858,-1.605 -0.4,-0.162 -0.733,0.178 -0.704,0.612 m 0.518,-5.357 c 0.255,-1.073 0.264,-2.946 0.264,-6.256 0,-2.105 0.508,-3.826 0.78,-3.826 0.272,0 0.78,1.721 0.78,3.826 0,3.31 0.009,5.183 0.264,6.256 0.051,0.216 1.132,0.083 2.283,-0.863 1.151,-0.946 0.514,-5.016 0.103,-6.928 -0.353,-1.641 -1.546,-5.172 -3.43,-6.484 -1.883,1.312 -3.077,4.843 -3.429,6.484 -0.412,1.912 -1.049,5.982 0.102,6.928 1.151,0.946 2.231,1.079 2.283,0.863 m -7.762,-41.802 c -1.988,0.364 -2.478,2.155 -1.635,3.841 0.864,1.728 1.336,1.492 2.62,5.085 0.255,0.713 0.728,0.563 0.728,0.563 0,0 0.366,-1.67 -0.206,-3.535 -0.476,-1.553 -1.237,-2.278 -0.62,-2.574 0.618,-0.295 1.954,1.177 2.507,2.449 0.553,1.273 0.962,3.439 0.962,3.439 0,0 0.671,-0.118 0.771,-0.88 0.16,-1.21 -0.222,-9.284 -5.127,-8.388 m -6.758,1.987 c 0.508,-0.164 1.268,0.817 1.811,1.744 0.455,0.776 1.007,2.058 1.007,2.058 0,0 1.059,-0.397 0.714,-2.078 -0.407,-1.979 -2.332,-5.126 -4.742,-4.056 -1.342,0.595 -1.021,2.75 -0.256,4.445 0.491,1.085 1.177,2.021 1.79,2.346 0.475,-0.147 0.39,-1.068 0.324,-1.627 -0.174,-1.47 -1.156,-2.668 -0.648,-2.832 m 5.495,-10.351 c -1.82,-1.935 -3.66,-2.455 -4.715,-1.742 -1.88,1.272 -1.281,3.316 1.493,6.332 1.59,1.728 2.53,2.682 2.53,2.682 0,0 0.319,0.125 0.416,-0.125 0,0 -0.755,-2.672 -1.1,-3.211 -0.346,-0.539 -0.96,-1.674 -0.912,-1.81 0.048,-0.133 0.37,-0.428 0.688,-0.124 0.318,0.305 1.019,1.62 1.503,2.076 0.454,0.428 1.357,1.791 1.855,2.062 0,0 0.165,0 0.212,-0.027 0.324,-0.525 0.09,-3.922 -1.97,-6.113 m -1.588,-19.539 c 0,-1.379 -0.387,-2.23 -0.994,-2.23 -0.607,0 -0.993,0.875 -0.993,2.219 0,1.54 0.511,5.956 0.696,7.002 h 0.297 c 0,0 0.994,-5.612 0.994,-6.991 m -2.376,10.004 c -0.944,0.944 -0.573,2.504 0.359,3.73 0.855,1.122 2.192,1.984 2.444,2.153 0.529,0.352 0.648,0.149 0.75,0.039 0,0 -2.282,-3.379 -1.585,-3.9 0.697,-0.521 2.693,2.586 2.693,2.586 0.242,-0.272 0.272,-0.441 0.095,-0.954 -0.05,-0.147 -0.541,-1.459 -1.44,-2.558 -0.968,-1.187 -2.378,-2.034 -3.316,-1.096 m 24.102,9.535 c -2.06,2.191 -2.293,5.588 -1.969,6.113 0.046,0.027 0.211,0.027 0.211,0.027 0.498,-0.271 1.401,-1.634 1.855,-2.062 0.484,-0.456 1.185,-1.771 1.503,-2.076 0.318,-0.304 0.64,-0.009 0.688,0.124 0.048,0.136 -0.566,1.271 -0.912,1.81 -0.345,0.539 -1.1,3.211 -1.1,3.211 0.098,0.25 0.415,0.125 0.415,0.125 0,0 0.941,-0.954 2.531,-2.682 2.775,-3.016 3.373,-5.06 1.493,-6.332 -1.055,-0.713 -2.895,-0.193 -4.715,1.742 m 3.575,-19.55 c 0,-1.344 -0.386,-2.219 -0.993,-2.219 -0.608,0 -0.994,0.851 -0.994,2.23 0,1.379 0.994,6.991 0.994,6.991 h 0.298 c 0.184,-1.046 0.695,-5.462 0.695,-7.002 m -2.928,11.111 c -0.898,1.099 -1.389,2.411 -1.439,2.558 -0.176,0.513 -0.147,0.682 0.095,0.954 0,0 1.996,-3.107 2.693,-2.586 0.697,0.521 -1.584,3.9 -1.584,3.9 0.101,0.11 0.22,0.313 0.749,-0.039 0.253,-0.169 1.589,-1.031 2.444,-2.153 0.932,-1.226 1.303,-2.786 0.359,-3.73 -0.938,-0.938 -2.348,-0.091 -3.317,1.096 m 10.71,39.334 c 0.019,0.493 0.455,0.133 0.588,-0.342 0.133,-0.474 0.487,-1.603 1.667,-3.051 1.67,-2.05 5.363,-3.519 5.363,-3.519 0,0 0.099,-1.762 -0.185,-2.351 -0.285,-0.588 -0.824,-0.32 -0.824,-0.32 0,0 -2.632,0.866 -4.018,2.194 -2.463,2.363 -2.61,6.895 -2.591,7.389 M 3.348,51.626 C 3.287,47.879 0.374,18.905 -3.681,9.206 c -0.154,-0.371 -1.492,1.395 -1.238,2.699 0.091,0.472 5.376,29.249 4.095,47.979 -0.009,0.135 0.483,-0.258 0.501,-0.304 1.844,-4.527 3.696,-6.438 3.671,-7.954 m -6.25,17.998 c 0.198,0.373 0.697,0.054 0.919,-0.162 0.488,-0.477 3.118,-4.878 0.872,-5.894 -2.315,-1.047 -4.292,3.486 -4.525,4.8 -0.187,1.059 0.547,0.814 0.547,0.814 0,0 1.709,-2.755 2.361,-2.453 0.637,0.296 -0.174,2.895 -0.174,2.895 m -2.876,-7.152 c -0.269,0.87 -0.104,1.71 -0.104,1.71 0.255,0.224 1.095,-0.9 1.095,-0.9 0,0 0.105,-0.855 0.509,-1.53 0.405,-0.675 1.664,-2.624 0.645,-3.254 -1.02,-0.63 -2.295,-0.311 -3.494,1.784 -1.244,2.175 -1.23,5.384 -1.11,5.714 0.12,0.33 0.45,0.21 0.51,-0.165 0.06,-0.375 0.33,-1.739 1.11,-3.374 0.78,-1.635 1.215,-1.32 1.215,-1.32 0,0 -0.105,0.465 -0.376,1.335 m -2.498,-5.909 c -0.435,1.215 -0.406,1.89 -0.406,1.89 0,0 0.406,0.315 0.811,-0.42 0.404,-0.735 1.514,-1.74 3.074,-2.85 1.239,-0.881 1.68,-3.104 0.15,-4.318 -0.969,-0.769 -2.88,-0.615 -4.754,1.364 -1.875,1.98 -2.535,5.129 -2.549,5.669 -0.015,0.54 0.299,0.495 0.299,0.495 0,0 1.185,-1.65 2.175,-2.715 0.989,-1.064 1.53,-1.574 2.249,-1.559 0.72,0.015 -0.614,1.23 -1.049,2.444 m -4.399,11.046 c 0,0 0.265,0.042 0.658,-0.231 0.598,-0.416 1.466,-1.353 1.911,-2.62 0.675,-1.919 -0.008,-2.783 -0.78,-3.149 -1.169,-0.555 -4.458,1.132 -4.843,5.758 -0.045,0.54 0.539,0.536 0.539,0.536 0,0 1.556,-4.065 3.06,-3.533 0.719,0.255 -0.545,3.239 -0.545,3.239 M -28.598,64.37 c 1.503,-0.532 3.062,3.534 3.062,3.534 0,0 0.582,0.003 0.537,-0.537 -0.386,-4.626 -3.675,-6.313 -4.844,-5.758 -0.772,0.366 -1.454,1.23 -0.78,3.149 0.445,1.267 1.313,2.204 1.912,2.62 0.392,0.273 0.657,0.231 0.657,0.231 0,0 -1.264,-2.984 -0.544,-3.239 m -4.904,-10.251 c 0.72,-0.015 1.26,0.495 2.249,1.56 0.99,1.064 2.175,2.714 2.175,2.714 0,0 0.315,0.045 0.3,-0.495 -0.015,-0.54 -0.675,-3.689 -2.549,-5.669 -1.875,-1.979 -3.786,-2.133 -4.755,-1.364 -1.53,1.214 -1.089,3.437 0.151,4.318 1.559,1.11 2.669,2.115 3.074,2.85 0.405,0.735 0.81,0.42 0.81,0.42 0,0 0.03,-0.675 -0.405,-1.89 -0.435,-1.214 -1.77,-2.429 -1.05,-2.444 m -0.609,8.338 c 0.78,1.635 1.049,2.999 1.11,3.374 0.059,0.375 0.389,0.495 0.509,0.165 0.12,-0.33 0.135,-3.539 -1.11,-5.714 -1.199,-2.095 -2.474,-2.414 -3.494,-1.784 -1.02,0.63 0.24,2.579 0.645,3.254 0.405,0.675 0.51,1.53 0.51,1.53 0,0 0.84,1.124 1.094,0.9 0,0 0.165,-0.84 -0.104,-1.71 -0.27,-0.87 -0.375,-1.335 -0.375,-1.335 0,0 0.435,-0.315 1.215,1.32 m -3.89,4.272 c 0.652,-0.302 2.361,2.453 2.361,2.453 0,0 0.734,0.245 0.547,-0.814 -0.233,-1.314 -2.21,-5.847 -4.524,-4.8 -2.248,1.016 0.383,5.417 0.872,5.894 0.221,0.216 0.721,0.535 0.918,0.162 0,0 -0.811,-2.599 -0.174,-2.895 M -48.714,46.983 c 0.602,0.631 1.481,2.124 1.819,2.217 0.337,0.093 0.258,-0.189 0.258,-0.189 0.216,-2.352 2.17,-25.156 7.449,-40.515 -0.432,-0.318 -0.9,-0.231 -1.241,0.035 -5.458,12.394 -8.888,37.82 -8.285,38.452 m -2.867,4.656 c -0.394,-0.601 -1.296,-1.318 -1.319,-2.451 -0.023,-1.134 1.585,-2.067 1.892,-2.584 0.808,-8.6 5.264,-32.202 9.41,-39.743 -1.528,-2.197 -1.727,-4.105 -1.196,-7.467 -0.679,-0.339 -1.336,-0.735 -1.962,-1.196 l -3.44,-2.531 c 2.01,-0.613 3.915,-1.556 5.647,-2.83 l 14.704,-10.822 c 2.265,1.372 4.836,2.586 7.514,2.586 3.122,0 5.144,-1.373 7.976,-3.284 l 7.148,-4.823 c 0,0 3.458,2.282 3.463,2.286 l -21.014,15.072 c 0.271,0.584 0.706,1.69 0.73,2.847 -0.919,1.965 -1.158,4.962 -0.843,5.417 0.179,0.26 1.066,-0.462 1.774,-1.574 0.567,-0.89 0.732,-0.856 0.732,-0.856 0,0 0.166,-0.034 0.733,0.856 0.708,1.112 1.595,1.834 1.774,1.574 0.314,-0.455 0.075,-3.452 -0.843,-5.417 0.024,-1.158 0.478,-2.469 0.751,-2.945 l 8.709,-6.409 2.068,-1.537 c 0,0 6.72,5.305 8.994,7.029 1.712,1.3 3.636,2.217 5.646,2.83 l -3.44,2.531 c -0.626,0.461 -1.284,0.857 -1.962,1.196 0.531,3.362 0.332,5.27 -1.196,7.467 4.145,7.541 8.602,31.143 9.41,39.743 0.307,0.517 1.915,1.45 1.891,2.584 -0.022,1.133 -0.924,1.85 -1.318,2.451 -0.393,0.602 -0.277,0.948 -0.393,2.683 -0.116,1.735 0.093,3.585 0.093,3.585 0,0 1.342,1.688 1.11,3.515 -0.231,1.827 -1.92,3.099 -1.92,3.099 0,0 -0.555,3.585 -1.156,8.164 -0.601,4.579 -1.55,8.048 -1.55,8.048 0,0 0.512,2.996 0.255,6.337 -0.332,4.315 -2.713,8.293 -2.538,9.873 0.304,2.73 1.441,2.492 2.076,7.196 0.534,3.957 -1.781,6.66 -1.781,6.66 0,0 -0.694,-3.353 -2.336,-4.001 -1.643,-0.647 -2.313,-0.069 -4.164,-0.185 -0.9,-0.056 -2.358,-0.162 -4.278,-1.133 -3.168,1.85 -4.139,1.688 -6.892,1.549 -2.752,-0.139 -2.937,0.046 -5.319,0.625 -0.291,0.07 -1.44,0.35 -2.424,0.321 -0.983,0.029 -2.133,-0.251 -2.424,-0.321 -2.381,-0.579 -2.566,-0.764 -5.318,-0.625 -2.753,0.139 -3.724,0.301 -6.892,-1.549 -1.92,0.971 -3.378,1.077 -4.278,1.133 -1.851,0.116 -2.522,-0.462 -4.164,0.185 -1.642,0.648 -2.336,4.001 -2.336,4.001 0,0 -2.315,-2.703 -1.781,-6.66 0.635,-4.704 1.772,-4.466 2.075,-7.196 0.176,-1.58 -2.205,-5.558 -2.537,-9.873 -0.257,-3.341 0.255,-6.337 0.255,-6.337 0,0 -0.949,-3.469 -1.551,-8.048 -0.601,-4.579 -1.156,-8.164 -1.156,-8.164 0,0 -1.688,-1.272 -1.919,-3.099 -0.232,-1.827 1.11,-3.515 1.11,-3.515 0,0 0.208,-1.85 0.092,-3.585 -0.115,-1.735 0,-2.081 -0.392,-2.683 m 9.903,50.357 c 2.625,0.016 3.253,-0.477 3.905,-1.072 0.106,-0.098 0.46,0.364 0.155,0.79 -0.386,0.541 -0.863,1.292 -1.154,1.436 -0.632,0.313 -1.48,0.378 -2.161,0.378 -1.229,0 -1.965,0.132 -2.844,0.459 -0.565,0.21 -0.897,0.44 -1.329,0.831 -0.237,-0.034 -0.232,-0.375 -0.13,-0.572 0.073,-0.141 0.966,-2.265 3.558,-2.25 M -6.759,82.96 c 1.76,0.784 2.319,2.972 1.49,4.833 -0.336,0.753 -1.044,1.077 -0.875,0.699 0.681,-1.529 0.222,-3.327 -1.224,-3.971 -1.447,-0.645 -3.081,0.038 -3.762,1.567 -0.308,0.692 -0.706,-0.099 -0.206,-1.221 0.828,-1.861 2.817,-2.692 4.577,-1.907 m 3.804,17.964 c 0.651,0.595 1.279,1.088 3.904,1.072 2.592,-0.015 3.486,2.109 3.558,2.25 0.103,0.197 0.107,0.538 -0.13,0.572 -0.432,-0.391 -0.764,-0.621 -1.329,-0.831 -0.879,-0.327 -1.614,-0.459 -2.844,-0.459 -0.681,0 -1.528,-0.065 -2.16,-0.378 -0.291,-0.144 -0.768,-0.895 -1.155,-1.436 -0.305,-0.426 0.049,-0.888 0.156,-0.79 M -73.859,-17.76 c 3.396,-3.301 7.104,-6.276 11.047,-8.899 0.034,0.025 0.51,0.375 7.169,5.276 2.515,1.851 5.496,2.83 8.618,2.83 3.123,0 6.103,-0.979 8.618,-2.83 l 2.918,-2.147 5.175,3.808 -14.288,9.713 c -5.756,3.913 -13.242,4.126 -18.848,0 l -10.628,-7.543 c 0.072,-0.07 0.147,-0.138 0.219,-0.208 M -33.97,82.96 c 1.76,-0.785 3.749,0.046 4.578,1.907 0.5,1.122 0.101,1.913 -0.207,1.221 -0.681,-1.529 -2.315,-2.212 -3.761,-1.567 -1.447,0.644 -1.906,2.442 -1.225,3.971 0.169,0.378 -0.539,0.054 -0.875,-0.699 -0.829,-1.861 -0.27,-4.049 1.49,-4.833 m 15.943,-122.34 c -1.465,1.011 -6.271,4.33 -22.077,15.243 -4.206,2.904 -9.585,2.83 -13.842,0 -5.809,-3.861 -6.25,-4.154 -6.284,-4.176 12.605,-7.66 27.442,-11.598 42.203,-11.067 m -9.225,18.357 -5.822,-4.285 c 3.773,-2.778 15.314,-11.296 18.949,-13.857 6.948,0.553 13.759,2.053 20.296,4.429 -1.507,1.031 -6.074,4.155 -19.94,13.639 -4.219,2.885 -9.367,3.103 -13.483,0.074 m 22.206,5.206 5.438,-4.04 c 1.845,0.823 3.841,1.258 5.904,1.258 3.123,0 5.313,-1.276 8.146,-3.124 6.363,-4.149 7.427,-4.842 7.606,-4.959 4.043,2.679 7.814,5.73 11.273,9.103 l -11.31,7.524 c -5.606,4.126 -13.152,4 -18.849,10e-4 z m 4.421,-8.32 -1.812,-1.408 c 0.986,-0.725 10.463,-7.7 11.135,-8.195 3.894,1.554 7.633,3.494 11.178,5.666 -0.753,0.45 -2.726,1.628 -7.91,4.723 -4.389,2.62 -8.474,2.244 -12.591,-0.786 m -19.753,172.728 c -61.272,0 -111.12,-49.848 -111.12,-111.119 0,-61.272 49.848,-111.119 111.12,-111.119 61.271,0 111.118,49.847 111.118,111.119 0,61.271 -49.847,111.119 -111.118,111.119 m 0,-224.505 c -62.522,0 -113.386,50.865 -113.386,113.386 0,62.521 50.864,113.386 113.386,113.386 62.52,0 113.385,-50.865 113.385,-113.386 0,-62.521 -50.865,-113.386 -113.385,-113.386 M 60.691,50.095 c -0.413,2.838 0.205,4.755 0.483,5.451 0.683,0.514 3.018,1.303 4.595,1.601 0.261,-0.134 0.403,-0.631 0.22,-0.796 -1.649,-0.757 -4.757,-2.624 -4.187,-6.542 0.414,-2.838 2.473,-3.951 4.499,-3.656 1.486,0.216 3.097,0.761 4.325,3.458 l 1.627,3.514 c 0.869,1.85 2.509,4.09 5.278,4.493 3.209,0.467 6.174,-1.653 6.813,-6.043 0.153,-1.048 0.127,-2.292 0.018,-3.205 -0.071,-0.459 -0.07,-0.942 -0.03,-1.212 -0.767,-0.422 -2.613,-1.001 -4.032,-1.208 -0.223,0.105 -0.403,0.631 -0.224,0.83 1.557,0.675 3.619,1.906 3.147,5.148 -0.482,3.311 -2.78,3.701 -4.335,3.474 -1.958,-0.285 -3.141,-2.113 -3.735,-3.476 l -1.296,-2.948 c -1.007,-2.319 -2.661,-4.699 -5.869,-5.167 -3.716,-0.541 -6.657,1.894 -7.297,6.284 m 1.566,31.357 c -0.825,-0.098 -0.841,-0.144 -0.423,-1.003 l 1.834,-3.774 c 0.433,-0.89 0.585,-0.892 1.279,-0.213 l 4.197,4.087 c 0.617,0.604 1.311,1.282 1.59,1.645 l -0.03,0.062 c -0.198,0.018 -1.084,-0.033 -2.168,-0.143 z m 0.222,-7.403 c 0.57,0.542 0.603,0.71 0.156,1.63 l -2.252,4.634 c -0.373,0.767 -0.554,0.906 -1.303,0.808 l -3.744,-0.492 c -1.604,-0.21 -2.538,-0.398 -2.875,-0.563 -0.368,-0.179 -0.478,-0.421 -0.181,-1.187 l 0.4,-1.058 c -0.049,-0.289 -0.54,-0.528 -0.797,-0.313 -0.326,0.829 -0.789,1.78 -1.459,3.237 -0.492,1.013 -1.09,2.088 -1.523,2.902 0.033,0.244 0.494,0.544 0.737,0.434 l 0.584,-0.968 c 0.419,-0.707 1.085,-1.218 2.398,-1.11 1.68,0.133 4.092,0.244 8.155,0.624 l 9.806,0.897 c 1.314,0.107 1.986,0.206 2.432,0.537 0.573,-0.632 1.379,-0.885 1.942,-1.028 0.089,-0.185 0.132,-0.429 -0.053,-0.596 -1.156,-1.054 -2.329,-2.231 -3.456,-3.348 L 61.154,68.891 c -2.206,-2.172 -2.473,-2.795 -1.985,-4.189 l 0.311,-0.873 c -0.049,-0.29 -0.57,-0.467 -0.768,-0.377 -0.55,1.288 -1.04,2.378 -1.712,3.759 -0.716,1.473 -1.343,2.609 -1.807,3.487 0.004,0.305 0.48,0.574 0.738,0.434 l 0.524,-0.846 c 0.375,-0.613 0.767,-0.954 1.074,-0.805 0.338,0.164 0.815,0.586 1.433,1.189 z M 44.619,96.36 C 42,93.914 41.673,93.515 42.899,91.953 l 0.671,-0.868 c 0.04,-0.243 -0.456,-0.612 -0.67,-0.533 -1.278,1.467 -2.045,2.339 -2.977,3.337 -0.931,0.997 -1.771,1.847 -3.311,3.396 -0.065,0.22 0.312,0.665 0.623,0.582 l 0.913,-0.828 c 1.452,-1.304 1.943,-1.08 4.561,1.366 l 11.146,10.41 c 0.773,0.723 0.798,0.746 0.099,1.494 l -1.281,1.371 c -1.001,1.073 -2.332,2.397 -3.488,2.485 -1.107,0.086 -1.889,-0.177 -2.769,-0.485 -0.336,0.06 -0.537,0.525 -0.431,0.811 1.495,0.65 3.441,1.766 4.601,2.523 0.12,-0.028 0.447,-0.329 0.442,-0.473 -0.658,-0.896 0.136,-1.695 1.207,-2.843 L 61.668,103.6 c 1.257,-1.346 1.517,-1.524 2.514,-1.293 0.167,-0.078 0.398,-0.376 0.345,-0.519 -1.279,-0.68 -3.462,-2.392 -4.139,-3.166 -0.293,-0.086 -0.689,0.338 -0.656,0.602 0.554,0.658 1.313,1.694 1.238,2.323 -0.112,0.971 -0.797,2.104 -2.078,3.475 l -1.654,1.77 c -0.698,0.749 -0.7,0.701 -1.523,-0.067 z m -13.506,26.758 c 1.91,3.072 2.158,3.6 0.538,4.808 l -0.688,0.509 c -0.102,0.223 0.28,0.709 0.508,0.685 1.413,-0.959 2.381,-1.6 3.598,-2.358 1.159,-0.72 2.162,-1.303 3.647,-2.144 0.12,-0.194 -0.147,-0.752 -0.393,-0.76 l -0.76,0.392 c -1.8,0.918 -2.164,0.462 -4.074,-2.61 l -6.414,-10.316 c -1.91,-3.071 -2.104,-3.513 -0.521,-4.779 l 0.671,-0.538 c 0.102,-0.223 -0.281,-0.709 -0.508,-0.687 -1.413,0.958 -2.381,1.599 -3.54,2.321 -1.217,0.756 -2.22,1.34 -3.705,2.183 -0.12,0.195 0.11,0.694 0.392,0.76 l 0.779,-0.364 c 1.836,-0.86 2.146,-0.49 4.056,2.582 z M 3.669,115.926 c -2.734,0.862 -4.192,2.252 -4.697,2.806 -0.165,0.839 0.141,3.283 0.558,4.833 0.235,0.177 0.744,0.087 0.813,-0.149 -0.036,-1.813 0.292,-5.424 4.067,-6.615 2.734,-0.863 4.633,0.506 5.249,2.459 0.452,1.432 0.662,3.119 -1.231,5.398 l -2.455,2.994 c -1.288,1.587 -2.591,4.038 -1.748,6.706 0.975,3.092 4.174,4.839 8.405,3.504 1.009,-0.319 2.119,-0.884 2.893,-1.379 0.382,-0.264 0.818,-0.472 1.078,-0.555 0.046,-0.873 -0.236,-2.788 -0.667,-4.155 -0.192,-0.154 -0.744,-0.087 -0.845,0.159 0.07,1.696 -0.141,4.089 -3.265,5.075 -3.19,1.006 -4.541,-0.894 -5.013,-2.391 -0.596,-1.887 0.535,-3.748 1.503,-4.876 l 2.09,-2.449 c 1.65,-1.916 3.072,-4.441 2.096,-7.532 -1.129,-3.58 -4.601,-5.168 -8.831,-3.833 m -26.995,16.666 c -0.009,-0.615 -0.016,-0.99 0.084,-1.128 0.101,-0.104 0.611,-0.181 2.351,-0.208 1.228,-0.021 2.527,0.095 3.529,0.829 0.932,0.702 1.736,1.883 1.774,4.202 0.043,2.695 -1.586,5.281 -5.373,5.343 -2.115,0.034 -2.219,-0.101 -2.235,-1.056 z m -2.718,4.923 c 0.053,3.241 -0.04,3.823 -1.436,4.015 l -1.089,0.155 c -0.236,0.174 -0.228,0.72 0.048,0.852 1.913,0.14 4.268,0.204 7.611,0.149 2.115,-0.034 4.125,-0.237 5.68,-1.115 1.624,-0.88 2.793,-2.434 2.754,-4.822 -0.052,-3.241 -2.64,-4.973 -4.356,-5.628 -0.174,-0.202 -0.009,-0.546 0.157,-0.822 2.658,-4.444 4.422,-7.203 6.71,-9.184 0.571,-0.522 1.418,-0.911 2.338,-0.994 0.169,-0.071 0.199,-0.344 0.026,-0.478 -0.308,-0.097 -0.855,-0.156 -1.504,-0.147 -2.899,0.048 -4.625,0.929 -6.991,4.413 -0.867,1.277 -2.227,3.653 -3.26,5.206 -0.499,0.758 -1.04,1.109 -2.404,1.13 -1.535,0.026 -1.604,-0.008 -1.615,-0.724 l -0.07,-4.298 c -0.058,-3.582 0.003,-3.992 1.977,-4.297 l 0.715,-0.114 c 0.202,-0.174 0.124,-0.753 -0.082,-0.852 -1.534,0.093 -2.693,0.146 -4.058,0.168 -1.432,0.024 -2.661,0.009 -4.266,-0.033 -0.203,0.106 -0.262,0.618 -0.054,0.854 l 0.855,0.088 c 1.982,0.207 2.058,0.649 2.116,4.232 z m -28.353,-5.837 c -1.015,3.4 -1.228,3.871 -3.225,3.524 l -0.542,-0.09 c -0.236,0.071 -0.346,0.679 -0.179,0.837 1.425,0.354 2.547,0.653 3.887,1.054 l 6.148,1.835 c 2.092,0.624 4.022,1.2 4.385,1.415 0.362,-0.497 1.261,-2.793 1.821,-4.192 -0.072,-0.235 -0.576,-0.457 -0.797,-0.31 -0.95,1.39 -1.586,2.447 -3.413,2.364 -0.736,-0.041 -1.792,-0.32 -3.23,-0.75 l -2.355,-0.703 c -0.981,-0.293 -0.961,-0.358 -0.59,-1.601 l 1.952,-6.539 c 0.274,-0.916 0.372,-0.887 1.352,-0.594 l 1.897,0.566 c 1.373,0.41 2.368,0.778 2.721,1.026 0.354,0.248 0.524,0.513 0.443,1.379 l -0.139,1.418 c 0.105,0.245 0.661,0.412 0.86,0.219 0.234,-0.784 0.484,-2.099 0.856,-3.341 0.351,-1.177 0.853,-2.381 1.067,-3.098 -0.062,-0.267 -0.618,-0.434 -0.84,-0.286 l -0.675,1.187 c -0.306,0.549 -0.682,0.972 -1.385,0.94 -0.497,-0.006 -1.291,-0.208 -2.566,-0.588 l -1.897,-0.566 c -0.981,-0.293 -1.069,-0.355 -0.815,-1.205 l 1.376,-4.611 c 0.518,-1.733 0.948,-2.816 1.637,-3.215 0.51,-0.276 1.304,-0.43 4.181,0.429 2.518,0.752 3.427,1.166 4.039,1.74 0.491,0.503 1.032,1.911 1.375,3.865 0.18,0.232 0.667,0.271 0.885,0.015 0.113,-1.212 0.047,-3.974 -0.114,-4.985 -2.962,-0.812 -5.883,-1.648 -8.793,-2.517 l -2.943,-0.879 c -1.406,-0.42 -2.508,-0.784 -4.417,-1.426 -0.226,0.04 -0.448,0.544 -0.31,0.798 l 1.05,0.421 c 1.815,0.72 1.832,1.259 0.807,4.692 z m -26.908,-12.637 c -1.683,1.197 -2.498,1.531 -3.831,0.892 l -0.556,-0.269 c -0.311,0.046 -0.537,0.468 -0.397,0.762 0.873,0.47 1.815,1.024 3.056,1.807 1.271,0.8 2.263,1.467 3.44,2.284 0.275,0.012 0.605,-0.385 0.512,-0.685 l -0.396,-0.331 c -1.006,-0.836 -1.128,-1.154 -1.011,-1.404 0.239,-0.252 1.713,-1.502 3.991,-3.132 3.44,-2.512 6.861,-4.994 10.379,-7.375 -0.306,2.469 -0.968,6.207 -1.269,8.156 -0.4,2.491 -1.1,6.609 -1.392,8.16 -0.151,0.752 -0.322,1.088 -0.45,1.289 -0.127,0.203 -0.561,0.252 -1.645,-0.27 l -0.556,-0.27 c -0.312,0.047 -0.526,0.516 -0.397,0.763 0.845,0.452 1.96,1.115 3.057,1.806 0.953,0.601 1.829,1.195 2.746,1.848 0.275,0.012 0.566,-0.45 0.512,-0.685 l -0.829,-0.604 c -0.657,-0.495 -0.871,-1.114 -0.864,-1.957 0.047,-1.866 0.395,-4.915 0.953,-8.679 l 0.679,-4.533 c 0.52,-3.385 1.275,-7.589 1.748,-9.429 -0.05,-0.112 -0.147,-0.214 -0.262,-0.287 -0.145,-0.091 -0.307,-0.153 -0.488,-0.186 -1.082,1.012 -2.494,2.099 -3.749,3.003 z m -11.538,-12.775 c -2.587,2.528 -3.05,2.885 -4.579,1.563 l -0.645,-0.562 c -0.24,-0.051 -0.632,0.427 -0.563,0.644 1.242,1.173 2.076,1.98 3.078,3.005 0.954,0.976 1.74,1.83 2.883,3.099 0.217,0.075 0.704,-0.306 0.659,-0.548 l -0.547,-0.657 c -1.285,-1.561 -0.918,-2.014 1.67,-4.542 l 8.69,-8.488 c 2.588,-2.527 2.978,-2.813 4.555,-1.539 l 0.67,0.539 c 0.24,0.051 0.632,-0.427 0.562,-0.646 -1.241,-1.172 -2.076,-1.979 -3.029,-2.955 -1.002,-1.025 -1.788,-1.879 -2.931,-3.148 -0.217,-0.074 -0.655,0.258 -0.659,0.548 l 0.523,0.682 c 1.236,1.607 0.942,1.99 -1.646,4.517 z m -0.319,-17.78 c 0.895,-0.496 4.446,-2.467 5.272,-2.808 0.146,-0.159 0.195,-0.421 0.013,-0.749 -0.706,-0.077 -2.23,-0.362 -6.625,-1.32 l -11.719,-2.551 c -1.372,-0.292 -4.944,-0.964 -5.948,-1.226 l -0.034,-0.06 c 0.293,-0.318 0.962,-0.729 1.857,-1.226 l 6.505,-3.609 c 1.403,-0.778 5.299,-2.9 6.475,-2.89 0.428,-0.003 0.938,0.495 1.411,1.207 l 0.603,0.876 c 0.338,0.046 0.68,-0.182 0.713,-0.476 -0.805,-1.309 -1.414,-2.336 -2.027,-3.44 -0.695,-1.254 -1.112,-2.075 -1.632,-3.153 -0.265,-0.126 -0.7,0.076 -0.779,0.355 l 0.357,0.855 c 0.292,0.736 0.378,1.313 0.132,1.645 -0.842,1.013 -4.5,3.003 -5.932,3.797 l -8.623,4.786 c -0.836,0.463 -1.479,0.781 -2.513,0.535 -0.649,-0.186 -1.256,-0.786 -1.743,-1.452 l -0.34,-0.474 c -0.279,-0.08 -0.727,0.168 -0.713,0.473 0.784,1.203 1.662,2.784 1.96,3.322 0.265,0.477 0.517,1 0.672,1.422 1.853,-0.247 7.746,1.088 9.396,1.46 l 4.859,1.091 c 3.44,0.784 5.922,1.318 8.132,1.926 l 0.033,0.06 c -0.083,0.202 -0.56,0.466 -1.187,0.815 l -6.385,3.543 c -1.403,0.778 -5.298,2.9 -6.508,2.83 -0.368,-0.03 -0.812,-0.408 -1.623,-1.519 l -0.342,-0.474 c -0.295,-0.109 -0.755,0.185 -0.713,0.47 0.822,1.339 1.415,2.337 2.044,3.471 0.712,1.283 1.112,2.075 1.615,3.127 0.282,0.157 0.7,-0.076 0.78,-0.354 l -0.173,-0.451 c -0.38,-1.038 -0.472,-1.767 -0.3,-2.019 0.793,-1.103 4.526,-3.096 5.899,-3.858 z m -21.029,-26.817 c -2.086,0.357 -5.965,0.95 -7.072,0.551 -0.444,-0.167 -0.783,-0.731 -0.994,-1.561 l -0.211,-0.829 c -0.27,-0.162 -0.696,-0.02 -0.796,0.204 0.286,1.267 0.532,2.505 0.756,3.818 0.242,1.412 0.363,2.326 0.503,3.549 0.214,0.241 0.646,0.133 0.819,-0.07 l -0.071,-0.82 c -0.076,-0.852 0.117,-1.542 0.52,-1.819 1.03,-0.661 4.898,-1.322 6.782,-1.644 l 3.8,-0.649 c 2.927,-0.501 5.941,-1.501 7.637,-3.729 1.334,-1.717 1.783,-4.356 1.357,-6.845 -0.397,-2.32 -1.23,-4.566 -2.925,-5.973 -1.784,-1.53 -4.384,-1.951 -8.387,-1.267 l -7.938,1.356 c -3.498,0.599 -4.081,0.629 -4.583,-1.293 l -0.211,-0.83 c -0.169,-0.178 -0.729,-0.014 -0.796,0.206 0.355,1.67 0.584,2.808 0.814,4.154 0.236,1.378 0.392,2.494 0.607,4.154 0.135,0.185 0.718,0.154 0.818,-0.07 l -0.071,-0.82 c -0.165,-1.979 0.395,-2.144 3.894,-2.742 l 7.265,-1.242 c 5.416,-0.925 9.269,0.147 10.148,5.293 0.834,4.878 -2.684,7.383 -7.797,8.257 z"
             style="fill:#231f20;fill-opacity:1;fill-rule:nonzero;stroke:none"
             id="path20" /></g><g
           id="g22"
           transform="translate(54.549,112.9765)"><path
             d="m 0,0 c -0.894,-0.329 -0.945,-0.385 -0.282,-1.988 1.326,-3.208 2.929,-4.61 5.928,-3.506 3.127,1.152 3.45,3.916 2.557,6.341 C 7.944,1.548 7.705,2.003 7.472,2.244 7.258,2.527 7.052,2.596 6.478,2.385 Z m -7.402,-2.726 c -1.149,-0.423 -2.752,-1.086 -3.231,-1.951 -0.511,-0.876 -0.317,-1.892 0.034,-2.849 1.046,-2.84 3.121,-4.539 6.312,-3.365 2.521,0.929 4.986,3.286 3.118,8.359 -0.635,1.723 -0.873,1.78 -1.511,1.545 z M 3.28,4.179 C 5.642,5.048 6.2,5.399 5.8,6.882 L 5.52,7.938 C 5.617,8.264 6.107,8.408 6.329,8.2 7.123,6.536 8.018,4.401 9.11,1.434 9.851,-0.576 10.396,-2.549 10.19,-4.255 10.025,-5.874 9.138,-7.396 7.095,-8.148 4.798,-8.995 3.124,-8.089 1.525,-6.504 1.207,-6.622 1.205,-6.912 1.271,-7.286 c 0.315,-1.841 -0.34,-4.981 -3.754,-6.238 -3.702,-1.363 -7.201,0.465 -9.316,6.21 -0.341,0.925 -0.82,2.523 -1.314,3.863 -0.517,1.404 -0.98,2.465 -1.447,3.633 0.026,0.226 0.512,0.478 0.774,0.357 L -13.479,0 c 0.911,-1.585 1.285,-1.52 4.635,-0.286 z"
             style="fill:#231f20;fill-opacity:1;fill-rule:nonzero;stroke:none"
             id="path24" /></g><g
           id="g26"
           transform="translate(67.9504,93.6488)"><path
             d="M 0,0 C 2.833,2.117 3.201,2.477 2.19,4.226 L 1.919,4.703 C 1.906,4.947 2.437,5.259 2.641,5.157 3.462,3.945 4.127,2.999 4.961,1.882 l 3.827,-5.121 c 1.303,-1.743 2.503,-3.35 2.829,-3.615 -0.341,-0.51 -2.179,-2.139 -3.297,-3.144 -0.244,-0.013 -0.625,0.382 -0.563,0.641 0.975,1.365 1.745,2.322 1.041,4.003 -0.291,0.674 -0.915,1.566 -1.812,2.765 L 5.521,-0.628 C 4.91,0.188 4.856,0.148 3.821,-0.625 l -5.447,-4.072 c -0.763,-0.57 -0.702,-0.651 -0.091,-1.469 l 1.18,-1.579 c 0.855,-1.144 1.541,-1.948 1.894,-2.193 0.353,-0.246 0.659,-0.314 1.442,0.059 l 1.279,0.616 c 0.266,-0.014 0.611,-0.477 0.502,-0.728 -0.653,-0.488 -1.797,-1.173 -2.832,-1.947 -0.98,-0.732 -1.934,-1.615 -2.533,-2.063 -0.273,-0.034 -0.618,0.429 -0.557,0.688 l 0.879,1.039 c 0.409,0.475 0.675,0.971 0.404,1.617 -0.175,0.463 -0.637,1.137 -1.431,2.199 l -1.181,1.58 c -0.61,0.817 -0.698,0.878 -1.407,0.349 l -3.84,-2.869 c -1.443,-1.08 -2.309,-1.853 -2.446,-2.635 -0.082,-0.571 0.046,-1.367 1.837,-3.764 1.567,-2.097 2.266,-2.806 3.013,-3.181 0.639,-0.287 2.142,-0.31 4.088,0.041 0.279,-0.089 0.482,-0.532 0.318,-0.824 -1.096,-0.522 -3.702,-1.408 -4.702,-1.603 -1.777,2.491 -3.562,4.936 -5.374,7.36 l -1.832,2.451 c -0.875,1.172 -1.594,2.077 -2.849,3.644 -0.041,0.224 0.354,0.604 0.639,0.563 l 0.754,-0.838 c 1.296,-1.45 1.807,-1.281 4.667,0.856 z"
             style="fill:#231f20;fill-opacity:1;fill-rule:nonzero;stroke:none"
             id="path28" /></g><g
           id="g30"
           transform="translate(84.7726,68.3891)"><path
             d="m 0,0 c -0.356,-0.498 -0.573,-0.802 -0.569,-0.972 0.023,-0.143 0.399,-0.494 1.809,-1.502 0.996,-0.712 2.127,-1.352 3.364,-1.316 1.162,0.047 2.49,0.561 3.834,2.442 1.56,2.186 1.687,5.229 -1.384,7.422 -1.715,1.225 -1.877,1.174 -2.43,0.399 z m 0.557,5.576 c 1.878,2.628 2.131,3.158 1.094,4.106 l -0.805,0.743 c -0.095,0.277 0.22,0.72 0.521,0.672 1.648,-0.968 3.616,-2.248 6.327,-4.185 1.715,-1.225 3.248,-2.529 4.028,-4.13 0.834,-1.64 0.913,-3.576 -0.471,-5.513 -1.877,-2.628 -4.98,-2.584 -6.758,-2.15 -0.257,-0.067 -0.316,-0.443 -0.336,-0.763 -0.336,-5.149 -0.45,-8.41 0.305,-11.33 0.174,-0.751 0.647,-1.549 1.355,-2.138 0.099,-0.154 -0.032,-0.395 -0.249,-0.407 -0.308,0.095 -0.791,0.355 -1.316,0.731 -2.352,1.68 -3.269,3.379 -3.236,7.576 0.011,1.537 0.241,4.256 0.272,6.114 0.02,0.905 -0.226,1.497 -1.332,2.288 -1.245,0.889 -1.319,0.901 -1.734,0.32 l -2.491,-3.486 c -2.075,-2.904 -2.256,-3.276 -0.81,-4.643 l 0.522,-0.498 c 0.067,-0.257 -0.324,-0.688 -0.549,-0.652 -1.206,0.944 -2.126,1.644 -3.233,2.434 -1.162,0.83 -2.178,1.514 -3.517,2.387 -0.107,0.202 0.134,0.656 0.438,0.731 l 0.751,-0.41 c 1.743,-0.953 2.056,-0.633 4.13,2.272 z"
             style="fill:#231f20;fill-opacity:1;fill-rule:nonzero;stroke:none"
             id="path32" /></g><g
           id="g34"
           transform="translate(119.9416,41.8656)"><path
             d="m 0,0 c -0.41,-1.297 -0.462,-2.137 0.05,-2.548 0.066,-0.128 0.005,-0.323 -0.155,-0.379 -0.39,0.123 -1.014,0.178 -1.682,0.211 -1.861,0.089 -4.319,0.438 -6.07,0.992 -3.859,1.221 -7.055,3.408 -8.751,6.727 -1.331,2.56 -1.559,5.45 -0.657,8.304 0.872,2.755 2.662,5.257 5.349,6.761 2.891,1.583 6.582,2.092 11.479,0.544 1.848,-0.585 3.454,-1.485 3.963,-1.789 0.576,-0.324 1.509,-0.869 1.918,-0.927 -0.338,-1.071 -0.676,-2.818 -1,-4.856 -0.179,-0.228 -0.773,-0.077 -0.906,0.18 0.199,3.789 -1.884,5.66 -5.191,6.706 -6.29,1.989 -10.461,-1.614 -11.999,-6.478 -1.969,-6.225 -0.308,-12.136 6.21,-14.198 2.01,-0.635 3.343,-0.593 3.874,-0.155 0.234,0.176 0.581,0.708 0.909,1.746 l 0.41,1.297 c 0.861,2.724 0.825,2.949 -1.113,3.812 L -4.737,6.563 C -4.956,6.775 -4.739,7.348 -4.481,7.372 -3.562,7.009 -1.788,6.413 0.125,5.808 1.39,5.408 2.502,5.092 3.593,4.82 3.778,4.619 3.657,4.123 3.369,4 L 2.829,4.099 C 1.416,4.367 1.097,3.47 0.574,1.816 Z"
             style="fill:#231f20;fill-opacity:1;fill-rule:nonzero;stroke:none"
             id="path36" /></g><g
           id="g38"
           transform="translate(137.9133,53.7514)"><path
             d="M 0,0 C -0.057,3.536 -0.133,4.044 -2.143,4.25 L -2.688,4.309 C -2.895,4.442 -2.836,5.055 -2.634,5.16 -1.171,5.116 -0.015,5.101 1.38,5.123 L 7.771,5.226 C 9.946,5.261 11.952,5.294 12.358,5.402 12.572,4.828 12.815,2.383 12.976,0.89 12.843,0.684 12.301,0.607 12.127,0.808 11.591,2.397 11.266,3.583 9.491,3.996 8.774,4.154 7.686,4.171 6.19,4.146 L 3.742,4.107 C 2.723,4.09 2.724,4.022 2.744,2.73 l 0.11,-6.799 c 0.016,-0.952 0.118,-0.95 1.137,-0.933 l 1.972,0.031 c 1.429,0.023 2.481,0.109 2.887,0.251 0.406,0.143 0.64,0.35 0.796,1.203 l 0.25,1.398 c 0.167,0.207 0.745,0.217 0.884,-0.022 0.014,-0.816 -0.101,-2.144 -0.08,-3.435 0.02,-1.224 0.177,-2.513 0.189,-3.259 -0.132,-0.241 -0.71,-0.25 -0.884,-0.049 L 9.678,-7.563 C 9.532,-6.953 9.286,-6.447 8.604,-6.288 8.125,-6.16 7.309,-6.139 5.982,-6.161 L 4.011,-6.192 C 2.991,-6.209 2.89,-6.245 2.903,-7.128 l 0.078,-4.794 c 0.03,-1.802 0.15,-2.956 0.704,-3.525 0.414,-0.402 1.133,-0.764 4.126,-0.716 2.617,0.043 3.601,0.195 4.343,0.58 0.606,0.351 1.505,1.555 2.361,3.337 0.235,0.174 0.713,0.08 0.853,-0.224 -0.219,-1.194 -1.026,-3.825 -1.454,-4.75 -3.06,0.018 -6.087,0.004 -9.112,-0.045 l -3.06,-0.05 c -1.462,-0.023 -2.617,-0.076 -4.622,-0.177 -0.205,0.099 -0.282,0.642 -0.082,0.849 l 1.121,0.121 c 1.935,0.201 2.097,0.713 2.039,4.283 z"
             style="fill:#231f20;fill-opacity:1;fill-rule:nonzero;stroke:none"
             id="path40" /></g><g
           id="g42"
           transform="translate(187.4787,52.8964)"><path
             d="M 0,0 C 0.38,-0.946 1.889,-4.702 2.313,-5.484 2.326,-5.699 2.2,-5.933 1.854,-6.072 1.259,-5.687 -0.1,-4.951 -4.101,-2.93 l -10.668,5.388 c -1.245,0.637 -4.43,2.362 -5.372,2.79 l -0.063,-0.026 c 0.026,-0.429 0.286,-1.167 0.667,-2.114 l 2.764,-6.879 c 0.595,-1.483 2.276,-5.573 3.192,-6.304 0.329,-0.271 1.036,-0.207 1.851,0.047 l 1.016,0.299 c 0.291,-0.177 0.411,-0.568 0.254,-0.814 -1.445,-0.508 -2.562,-0.92 -3.73,-1.39 -1.326,-0.532 -2.164,-0.906 -3.244,-1.413 -0.284,0.069 -0.493,0.498 -0.38,0.763 l 0.814,0.437 c 0.688,0.387 1.116,0.779 1.135,1.19 -0.015,1.313 -1.593,5.15 -2.202,6.665 l -3.664,9.12 c -0.356,0.883 -0.654,1.533 -1.608,1.992 -0.619,0.264 -1.465,0.181 -2.261,-0.029 L -26.161,6.64 c -0.266,0.113 -0.456,0.587 -0.254,0.814 1.363,0.438 3.035,1.109 3.603,1.338 0.505,0.203 1.029,0.45 1.414,0.679 1.278,-1.356 6.675,-4.025 8.185,-4.774 l 4.443,-2.21 c 3.154,-1.555 5.411,-2.7 7.502,-3.619 l 0.063,0.025 c 0.063,0.209 -0.14,0.713 -0.406,1.376 l -2.713,6.753 c -0.597,1.483 -2.277,5.573 -3.256,6.278 -0.304,0.208 -0.885,0.195 -2.21,-0.154 l -0.563,-0.153 c -0.296,0.1 -0.467,0.618 -0.253,0.813 1.477,0.521 2.562,0.92 3.761,1.402 1.358,0.545 2.165,0.906 3.212,1.401 0.317,-0.056 0.494,-0.498 0.381,-0.763 l -0.417,-0.241 c -0.946,-0.563 -1.476,-1.069 -1.501,-1.373 -0.079,-1.351 1.556,-5.238 2.14,-6.69 z"
             style="fill:#231f20;fill-opacity:1;fill-rule:nonzero;stroke:none"
             id="path44" /></g><g
           id="g46"
           transform="translate(211.1974,61.9423)"><path
             d="m 0,0 c -2.142,-1.89 -4.078,-2.42 -4.811,-2.567 -0.8,0.291 -2.73,1.808 -3.838,2.962 -0.031,0.291 0.307,0.679 0.544,0.616 1.53,-0.963 4.782,-2.538 7.739,0.072 2.141,1.891 1.949,4.216 0.599,5.746 -0.991,1.122 -2.323,2.169 -5.242,1.724 L -8.826,7.996 c -2.018,-0.284 -4.779,-0.136 -6.625,1.954 -2.139,2.423 -1.985,6.051 1.33,8.977 0.79,0.698 1.844,1.355 2.664,1.762 0.421,0.19 0.823,0.455 1.027,0.635 0.77,-0.409 2.26,-1.635 3.205,-2.706 0.033,-0.243 -0.307,-0.68 -0.57,-0.639 -1.412,0.931 -3.563,1.981 -6.011,-0.18 -2.499,-2.205 -1.571,-4.335 -0.536,-5.508 1.306,-1.479 3.475,-1.47 4.936,-1.223 l 3.165,0.525 c 2.484,0.424 5.37,0.341 7.509,-2.082 C 3.743,6.707 3.314,2.926 0,0"
             style="fill:#231f20;fill-opacity:1;fill-rule:nonzero;stroke:none"
             id="path48" /></g><g
           id="g50"
           transform="translate(214.4484,92.1727)"><path
             d="m 0,0 c -3.007,1.986 -3.526,2.248 -4.773,0.668 l -0.526,-0.672 c -0.225,-0.095 -0.699,0.299 -0.672,0.525 0.994,1.381 1.659,2.327 2.447,3.519 0.749,1.134 1.358,2.118 2.238,3.573 0.197,0.114 0.746,-0.167 0.747,-0.412 L -0.951,6.455 C -1.915,4.687 -1.47,4.312 1.537,2.326 l 10.098,-6.671 c 3.007,-1.986 3.441,-2.192 4.746,-0.649 l 0.553,0.653 c 0.226,0.095 0.699,-0.299 0.671,-0.525 -0.993,-1.381 -1.659,-2.326 -2.408,-3.461 -0.787,-1.192 -1.395,-2.175 -2.276,-3.631 -0.197,-0.114 -0.689,0.129 -0.746,0.412 l 0.383,0.765 c 0.907,1.805 0.547,2.124 -2.459,4.11 z"
             style="fill:#231f20;fill-opacity:1;fill-rule:nonzero;stroke:none"
             id="path52" /></g><g
           id="g54"
           transform="translate(242.0607,108.0673)"><path
             d="m 0,0 c -0.891,-2.714 -2.293,-4.15 -2.85,-4.647 -0.838,-0.154 -3.269,0.179 -4.808,0.612 -0.174,0.236 -0.079,0.742 0.157,0.807 1.807,-0.056 5.407,0.229 6.637,3.977 0.891,2.713 -0.45,4.621 -2.389,5.257 -1.422,0.467 -3.1,0.695 -5.392,-1.164 l -3.01,-2.411 c -1.596,-1.266 -4.053,-2.535 -6.701,-1.665 -3.07,1.007 -4.772,4.214 -3.393,8.414 0.328,1.001 0.904,2.1 1.406,2.866 0.267,0.377 0.48,0.808 0.565,1.067 0.871,0.036 2.775,-0.267 4.132,-0.713 0.151,-0.192 0.079,-0.741 -0.168,-0.839 -1.689,0.089 -4.075,-0.094 -5.093,-3.195 -1.039,-3.165 0.838,-4.533 2.324,-5.021 1.873,-0.615 3.739,0.49 4.874,1.442 l 2.464,2.053 c 1.928,1.622 4.459,3.01 7.527,2.002 C -0.164,7.676 1.378,4.199 0,0"
             style="fill:#231f20;fill-opacity:1;fill-rule:nonzero;stroke:none"
             id="path56" /></g></g></g></g></svg>
